<?xml version="1.0" encoding="UTF-8" standalone="no"?>
<!-- Created with Inkscape (http://www.inkscape.org/) -->

<svg
   xmlns:dc="http://purl.org/dc/elements/1.1/"
   xmlns:cc="http://creativecommons.org/ns#"
   xmlns:rdf="http://www.w3.org/1999/02/22-rdf-syntax-ns#"
   xmlns:svg="http://www.w3.org/2000/svg"
   xmlns="http://www.w3.org/2000/svg"
   xmlns:sodipodi="http://sodipodi.sourceforge.net/DTD/sodipodi-0.dtd"
   xmlns:inkscape="http://www.inkscape.org/namespaces/inkscape"
   width="52.969894mm"
   height="7.8003402mm"
   viewBox="0 0 52.969894 7.8003402"
   version="1.1"
   id="svg8"
   inkscape:version="0.92.5 (2060ec1f9f, 2020-04-08)"
   sodipodi:docname="knowMore.svg">
  <defs
     id="defs2" />
  <sodipodi:namedview
     id="base"
     pagecolor="#ffffff"
     bordercolor="#666666"
     borderopacity="1.0"
     inkscape:pageopacity="0.0"
     inkscape:pageshadow="2"
     inkscape:zoom="4.9709847"
     inkscape:cx="106.15315"
     inkscape:cy="26.495088"
     inkscape:document-units="mm"
     inkscape:current-layer="text12"
     showgrid="false"
     inkscape:window-width="1832"
     inkscape:window-height="1016"
     inkscape:window-x="88"
     inkscape:window-y="27"
     inkscape:window-maximized="1" />
  <metadata
     id="metadata5">
    <rdf:RDF>
      <cc:Work
         rdf:about="">
        <dc:format>image/svg+xml</dc:format>
        <dc:type
           rdf:resource="http://purl.org/dc/dcmitype/StillImage" />
        <dc:title />
      </cc:Work>
    </rdf:RDF>
  </metadata>
  <g
     inkscape:label="Layer 1"
     inkscape:groupmode="layer"
     id="layer1"
     transform="translate(-40.097775,-148.04315)">
    <g
       aria-label="Know More"
       style="font-style:normal;font-weight:normal;font-size:10.58333302px;line-height:1.25;font-family:sans-serif;letter-spacing:0px;word-spacing:0px;fill:#000000;fill-opacity:1;stroke:#000000;stroke-width:0.26499999;stroke-linecap:round;stroke-linejoin:round;stroke-miterlimit:4;stroke-dasharray:none;stroke-opacity:1"
       id="text12">
      <path
         d="m 46.061691,155.71099 h -1.121833 l -3.84175,-3.54541 v 3.54541 h -0.867833 v -7.46125 h 0.867833 v 3.429 l 3.661833,-3.429 h 1.100667 l -3.894667,3.63009 z"
         style="font-style:normal;font-variant:normal;font-weight:normal;font-stretch:normal;font-size:10.58333302px;font-family:'Nunito Sans';-inkscape-font-specification:'Nunito Sans, Normal';font-variant-ligatures:normal;font-variant-caps:normal;font-variant-numeric:normal;font-feature-settings:normal;text-align:start;writing-mode:lr-tb;text-anchor:start;fill:#000000;fill-opacity:1;stroke:#000000;stroke-width:0.26499999;stroke-linecap:round;stroke-linejoin:round;stroke-miterlimit:4;stroke-dasharray:none;stroke-opacity:1"
         id="path841"
         inkscape:connector-curvature="0" />
      <path
         d="m 49.342507,150.42991 q 1.852083,0 1.852083,2.04258 v 3.2385 h -0.85725 v -3.18558 q 0,-0.71967 -0.28575,-1.04775 -0.275167,-0.32808 -0.889,-0.32808 -0.709083,0 -1.132417,0.43391 -0.423333,0.43392 -0.423333,1.17475 v 2.95275 h -0.85725 v -5.15408 h 0.846667 v 0.84667 q 0.254,-0.47625 0.709083,-0.71967 0.455083,-0.254 1.037167,-0.254 z"
         style="font-style:normal;font-variant:normal;font-weight:normal;font-stretch:normal;font-size:10.58333302px;font-family:'Nunito Sans';-inkscape-font-specification:'Nunito Sans, Normal';font-variant-ligatures:normal;font-variant-caps:normal;font-variant-numeric:normal;font-feature-settings:normal;text-align:start;writing-mode:lr-tb;text-anchor:start;fill:#000000;fill-opacity:1;stroke:#000000;stroke-width:0.26499999;stroke-linecap:round;stroke-linejoin:round;stroke-miterlimit:4;stroke-dasharray:none;stroke-opacity:1"
         id="path843"
         inkscape:connector-curvature="0" />
      <path
         d="m 65.566723,150.55691 h 0.85725 l -1.915584,5.15408 h -0.8255 l -1.449916,-3.98991 -1.4605,3.98991 h -0.814917 l -1.915583,-5.15408 h 0.889 l 1.4605,4.13808 1.49225,-4.13808 h 0.740833 l 1.471083,4.13808 z"
         style="font-style:normal;font-variant:normal;font-weight:normal;font-stretch:normal;font-size:10.58333302px;font-family:'Nunito Sans';-inkscape-font-specification:'Nunito Sans, Normal';font-variant-ligatures:normal;font-variant-caps:normal;font-variant-numeric:normal;font-feature-settings:normal;text-align:start;writing-mode:lr-tb;text-anchor:start;fill:#000000;fill-opacity:1;stroke:#000000;stroke-width:0.26499999;stroke-linecap:round;stroke-linejoin:round;stroke-miterlimit:4;stroke-dasharray:none;stroke-opacity:1"
         id="path847"
         inkscape:connector-curvature="0" />
      <path
         d="m 76.679205,148.24974 h 0.709084 v 7.46125 h -0.79375 l 0.01058,-5.7785 -2.423583,4.59317 h -0.613834 l -2.434166,-4.55083 0.01058,5.73616 h -0.804333 v -7.46125 h 0.719666 l 2.82575,5.40809 z"
         style="font-style:normal;font-variant:normal;font-weight:normal;font-stretch:normal;font-size:10.58333302px;font-family:'Nunito Sans';-inkscape-font-specification:'Nunito Sans, Normal';font-variant-ligatures:normal;font-variant-caps:normal;font-variant-numeric:normal;font-feature-settings:normal;text-align:start;writing-mode:lr-tb;text-anchor:start;fill:#000000;fill-opacity:1;stroke:#000000;stroke-width:0.26499999;stroke-linecap:round;stroke-linejoin:round;stroke-miterlimit:4;stroke-dasharray:none;stroke-opacity:1"
         id="path849"
         inkscape:connector-curvature="0" />
      <path
         d="m 87.908102,151.17076 -0.560917,0.0529 q -0.79375,0.0741 -1.153583,0.49742 -0.34925,0.42333 -0.34925,1.04775 v 2.94216 h -0.85725 v -5.15408 h 0.836083 v 0.89958 q 0.433917,-0.89958 1.703917,-1.00541 l 0.306916,-0.0212 z"
         style="font-style:normal;font-variant:normal;font-weight:normal;font-stretch:normal;font-size:10.58333302px;font-family:'Nunito Sans';-inkscape-font-specification:'Nunito Sans, Normal';font-variant-ligatures:normal;font-variant-caps:normal;font-variant-numeric:normal;font-feature-settings:normal;text-align:start;writing-mode:lr-tb;text-anchor:start;fill:#000000;fill-opacity:1;stroke:#000000;stroke-width:0.26499999;stroke-linecap:round;stroke-linejoin:round;stroke-miterlimit:4;stroke-dasharray:none;stroke-opacity:1"
         id="path853"
         inkscape:connector-curvature="0" />
      <path
         d="m 92.935168,153.19215 h -3.767667 q 0.04233,0.89959 0.486833,1.36525 0.4445,0.45509 1.259417,0.45509 0.899583,0 1.651,-0.61384 l 0.28575,0.62442 q -0.338667,0.3175 -0.867833,0.508 -0.529167,0.17992 -1.0795,0.17992 -1.2065,0 -1.905,-0.70909 -0.687917,-0.70908 -0.687917,-1.95791 0,-0.79375 0.306917,-1.397 0.306916,-0.61384 0.85725,-0.9525 0.560916,-0.33867 1.27,-0.33867 1.026583,0 1.608666,0.67733 0.582084,0.66675 0.582084,1.8415 z m -2.180167,-2.16958 q -0.677333,0 -1.090083,0.42333 -0.402167,0.42334 -0.47625,1.19592 h 2.995083 q -0.02117,-0.78317 -0.391583,-1.19592 -0.370417,-0.42333 -1.037167,-0.42333 z"
         style="font-style:normal;font-variant:normal;font-weight:normal;font-stretch:normal;font-size:10.58333302px;font-family:'Nunito Sans';-inkscape-font-specification:'Nunito Sans, Normal';font-variant-ligatures:normal;font-variant-caps:normal;font-variant-numeric:normal;font-feature-settings:normal;text-align:start;writing-mode:lr-tb;text-anchor:start;fill:#000000;fill-opacity:1;stroke:#000000;stroke-width:0.26499999;stroke-linecap:round;stroke-linejoin:round;stroke-miterlimit:4;stroke-dasharray:none;stroke-opacity:1"
         id="path855"
         inkscape:connector-curvature="0" />
      <path
         style="opacity:1;fill:none;fill-opacity:1;fill-rule:nonzero;stroke:#000000;stroke-width:0.99400002;stroke-linecap:round;stroke-linejoin:round;stroke-miterlimit:4;stroke-dasharray:none;stroke-dashoffset:0;stroke-opacity:1;paint-order:fill markers stroke"
         d="m 57.086187,152.99818 a 2.241853,2.3483043 0 0 1 -2.241853,2.34831 2.241853,2.3483043 0 0 1 -2.241853,-2.34831 2.241853,2.3483043 0 0 1 2.241853,-2.3483 2.241853,2.3483043 0 0 1 2.241853,2.3483 z"
         id="path924" />
      <path
         style="font-style:normal;font-weight:normal;font-size:10.58333302px;line-height:1.25;font-family:sans-serif;letter-spacing:0px;word-spacing:0px;opacity:1;fill:none;fill-opacity:1;fill-rule:nonzero;stroke:#000000;stroke-width:0.99400002;stroke-linecap:round;stroke-linejoin:round;stroke-miterlimit:4;stroke-dasharray:none;stroke-dashoffset:0;stroke-opacity:1;paint-order:fill markers stroke"
         d="m 83.223016,152.99818 a 2.241853,2.3483043 0 0 1 -2.241853,2.34831 2.241853,2.3483043 0 0 1 -2.241853,-2.34831 2.241853,2.3483043 0 0 1 2.241853,-2.3483 2.241853,2.3483043 0 0 1 2.241853,2.3483 z"
         id="path924-3" />
    </g>
  </g>
</svg>
