<?xml version="1.0" encoding="UTF-8" standalone="no"?>
<svg
   xmlns:dc="http://purl.org/dc/elements/1.1/"
   xmlns:cc="http://creativecommons.org/ns#"
   xmlns:rdf="http://www.w3.org/1999/02/22-rdf-syntax-ns#"
   xmlns:svg="http://www.w3.org/2000/svg"
   xmlns="http://www.w3.org/2000/svg"
   xmlns:sodipodi="http://sodipodi.sourceforge.net/DTD/sodipodi-0.dtd"
   xmlns:inkscape="http://www.inkscape.org/namespaces/inkscape"
   width="793.70081"
   height="200"
   viewBox="0 0 210 52.916668"
   version="1.1"
   id="svg8"
   inkscape:version="1.0.1 (3bc2e813f5, 2020-09-07)"
   sodipodi:docname="name.svg">
  <style
     id="style863">
.start { 
    transition:2s;
    stroke-dasharray:500;
    stroke-dashoffset:500;
}
</style>
  <defs
     id="defs2" />
  <sodipodi:namedview
     id="base"
     pagecolor="#ffffff"
     bordercolor="#666666"
     borderopacity="1.0"
     inkscape:pageopacity="0.0"
     inkscape:pageshadow="2"
     inkscape:zoom="4.64"
     inkscape:cx="216.71196"
     inkscape:cy="64.508682"
     inkscape:document-units="mm"
     inkscape:current-layer="layer1"
     inkscape:document-rotation="0"
     showgrid="false"
     units="px"
     inkscape:window-width="1832"
     inkscape:window-height="1009"
     inkscape:window-x="88"
     inkscape:window-y="34"
     inkscape:window-maximized="1" />
  <metadata
     id="metadata5">
    <rdf:RDF>
      <cc:Work
         rdf:about="">
        <dc:format>image/svg+xml</dc:format>
        <dc:type
           rdf:resource="http://purl.org/dc/dcmitype/StillImage" />
        <dc:title />
      </cc:Work>
    </rdf:RDF>
  </metadata>
  <g
     inkscape:label="Layer 1"
     inkscape:groupmode="layer"
     id="layer1">
    <text
       xml:space="preserve"
       style="font-style:normal;font-variant:normal;font-weight:bold;font-stretch:normal;font-size:25.4px;line-height:1.25;font-family:'Dancing Script';-inkscape-font-specification:'Dancing Script Bold';letter-spacing:0px;word-spacing:0px;fill:#000000;fill-opacity:1;stroke:none;stroke-width:0.264583"
       x="27.339663"
       y="33.227432"
       id="text12"><tspan
         sodipodi:role="line"
         id="tspan10"
         x="27.339663"
         y="33.227432"
         style="font-style:normal;font-variant:normal;font-weight:normal;font-stretch:normal;font-size:25.4px;font-family:'Dancing Script';-inkscape-font-specification:'Dancing Script';stroke-width:0.264583"
         rotate="0 0 0 0 0 0 0 0 0 0 0 0 0 0">Yash Mahalwal</tspan></text>
    <text
       xml:space="preserve"
       style="font-style:normal;font-weight:normal;font-size:10.5833px;line-height:1.25;font-family:sans-serif;letter-spacing:0px;word-spacing:0px;fill:#000000;fill-opacity:1;stroke:none;stroke-width:0.264583"
       x="116.38053"
       y="8.9392385"
       id="text36"><tspan
         sodipodi:role="line"
         id="tspan34"
         x="116.38053"
         y="8.9392385"
         style="stroke-width:0.264583" /></text>
    <path
       style="fill:none;stroke:#ff0000;stroke-width:2.565;stroke-linecap:round;stroke-linejoin:round;stroke-miterlimit:4;stroke-opacity:1"
       d="m 28.487949,21.21662 0.11366,-2.373725 c 0.420108,-2.132513 0.420108,-2.132513 0.420108,-2.132513 l 1.873401,-1.267576 c 3.829938,0.545486 3.414847,2.669889 3.414847,2.669889 v 0 c -0.673351,2.786114 -0.957091,3.571651 -0.957091,3.571651 l -0.919943,3.655694 c 1.333138,1.66292 0.673982,2.899762 0.673982,2.899762 l 2.56526,0.907185 2.284259,-1.643163 c 1.558859,-2.347732 1.558859,-2.455853 1.558859,-2.455853 L 40.764,21.492516 c 1.32104,-3.518898 1.32104,-3.569892 1.32104,-3.569892 1.090062,-2.237018 1.954678,-1.972202 1.954678,-1.972202 l -1.544158,3.969853 c -1.114221,3.535882 -1.187154,3.578346 -1.187154,3.578346 -1.543026,5.094625 -1.527458,5.409358 -1.527458,5.409358 -0.982313,4.244411 -0.949455,4.304953 -0.949455,4.304953 -1.869585,2.642896 -1.821828,2.749889 -1.821828,2.749889 l -3.615274,1.711626 -2.23484,-0.171066 -0.70938,-2.217484 c 0.49481,-1.576072 0.49481,-1.613585 0.49481,-1.613585 20.22275,-6.14657 20.22275,-6.116304 20.22275,-6.116304 l 0.379785,-1.282712 -0.26421,-0.800933 -2.031023,-0.67407 -2.342222,1.116713 c -1.46718,1.73613 -1.46718,1.755863 -1.46718,1.755863 -1.149173,1.980655 -1.149173,2.033005 -1.149173,2.033005 l -0.677757,2.723452 0.838303,1.288044 2.260415,-0.61913 c 1.967487,-1.683258 2.01821,-1.683258 2.01821,-1.683258 1.910035,-2.65875 1.910035,-2.69209 1.910035,-2.69209 l -1.048927,2.726986 c -0.115933,0.873487 -0.115933,1.083961 -0.115933,1.083961 1.121849,0.46364 1.587849,0.782151 1.587849,0.782151 l 2.304048,-1.228757 c 1.691589,-1.787464 1.691589,-1.839897 1.691589,-1.839897 l 1.663684,-2.088242 c 2.659261,-4.075414 2.276594,-3.885519 2.276594,-3.885519 l -0.281622,1.139287 c 0.465608,1.366678 0.561425,1.236276 0.561425,1.236276 l 0.786005,2.480844 c 0.271571,2.125859 0.271571,2.155955 0.271571,2.155955 -1.138134,2.081003 -1.012401,2.081003 -1.012401,2.081003 l -2.095048,0.760873 -2.155624,-1.546873 c -0.76699,-1.509099 -0.585467,-1.484207 -0.585467,-1.484207 0.542142,-1.518631 0.542142,-1.568198 0.542142,-1.568198 l 2.467411,1.880986 c 4.234982,0.569513 4.201996,0.540528 4.201996,0.540528 l 3.419726,-4.005286 c 1.782469,-2.661113 1.833862,-2.661113 1.833862,-2.661113 l 3.073056,-3.32366 c 1.760172,-3.806821 1.698318,-3.806821 1.698318,-3.806821 -0.419717,-2.687711 -0.419717,-2.658904 -0.419717,-2.658904 -2.117656,2.277891 -2.117656,2.323209 -2.117656,2.323209 -1.815518,3.624307 -1.871461,3.707739 -1.871461,3.707739 -1.49162,4.231964 -1.511993,4.231964 -1.511993,4.231964 -1.435309,4.61972 -1.435309,4.671134 -1.435309,4.671134 l 0.661178,2.8306 c 2.051777,-3.536368 2.051777,-3.49817 2.051777,-3.49817 l 2.094095,-3.186631 2.438543,-0.027 c -0.196876,1.845315 0.09224,1.464132 0.09224,1.464132 l -1.297576,3.565333 1.189381,1.533432 1.919525,-0.05513 c 1.918383,-2.102578 2.137117,-2.369831 2.137117,-2.369831 1.027821,-1.442101 1.008205,-1.693201 1.008205,-1.693201 v 0 0"
       id="path38"
       sodipodi:nodetypes="ccccccccccccccccccccccccccccccccccccccccccccccccccccccccccccccccccccccccccc"
       class="start "
       onload="setTimeout(() =&gt; this.style.strokeDashOffset = &quot;0&quot;, 200)" />
  </g>
</svg>
