<?xml version="1.0" encoding="UTF-8" standalone="no"?>
<svg
   xmlns:dc="http://purl.org/dc/elements/1.1/"
   xmlns:cc="http://creativecommons.org/ns#"
   xmlns:rdf="http://www.w3.org/1999/02/22-rdf-syntax-ns#"
   xmlns:svg="http://www.w3.org/2000/svg"
   xmlns="http://www.w3.org/2000/svg"
   xmlns:sodipodi="http://sodipodi.sourceforge.net/DTD/sodipodi-0.dtd"
   xmlns:inkscape="http://www.inkscape.org/namespaces/inkscape"
   height="270.93332mm"
   width="338.66666mm"
   inkscape:version="1.0.1 (3bc2e813f5, 2020-09-07)"
   sodipodi:docname="cat.svg"
   id="svg74"
   xml:space="preserve"
   viewBox="0 0 338.66666 270.93332"
   y="0px"
   x="0px"
   version="1.1"
   class="kitten"><metadata
   id="metadata80"><rdf:RDF><cc:Work
       rdf:about=""><dc:format>image/svg+xml</dc:format><dc:type
         rdf:resource="http://purl.org/dc/dcmitype/StillImage" /><dc:title /></cc:Work></rdf:RDF></metadata><defs
   id="defs78"><rect
   x="21.436945"
   y="172.2161"
   width="302.60599"
   height="81.494541"
   id="rect1131" />
                
            
                    
                    
                
                
            
                
            
                
            
                
            
                
            
                
                
            
                
                
            </defs><sodipodi:namedview
   pagecolor="#ffffff"
   bordercolor="#666666"
   borderopacity="1"
   objecttolerance="10"
   gridtolerance="10"
   guidetolerance="10"
   inkscape:pageopacity="0"
   inkscape:pageshadow="2"
   inkscape:window-width="1832"
   inkscape:window-height="1009"
   id="namedview76"
   showgrid="false"
   inkscape:zoom="0.64379276"
   inkscape:cx="952.27274"
   inkscape:cy="498.0642"
   inkscape:window-x="88"
   inkscape:window-y="34"
   inkscape:window-maximized="1"
   inkscape:current-layer="svg74"
   inkscape:document-rotation="0"
   units="mm" />
            <style
   type="text/css"
   id="style2">
                .st0{fill:#2EC7FF;}
                .st1{fill:#5CD3FF;}
                .st2{fill:#2EB5FF;}
                .st3{fill:#299ACC;}
                .st4{fill:#196FA3;}
                .st5{fill:#ffcccb;}
                .st6{fill:#FFFFFF;}
                .st7{fill:#FFFFFF;}
                .st8{fill:#46D3F9;}
                .st9{fill:#2EB5FF;}
                .st10{fill:#6BCEF9;}
                .st11{stroke:#000000;stroke-miterlimit:10;}
            </style>
            <g
   id="Head">
                <path
   id="polygon4"
   style="fill:#2ec7ff;stroke:#2ec7ff;stroke-width:0.132292;stroke-miterlimit:4;stroke-dasharray:none;stroke-opacity:1"
   d="M 187.524,56.9984 H 140.099 L 114.047,74.032 v 21.7935 l 36.988,24.3735 z" /><path
   id="path465"
   style="fill:#2ec7ff;stroke:#2ec7ff;stroke-width:0.132292;stroke-miterlimit:4;stroke-dasharray:none;stroke-opacity:1"
   d="m 187.524,56.9984 -36.489,63.2006 6.349,4.183 h 25.299 L 220.259,95.8255 V 74.032 L 191.702,56.9984 Z" />
            </g>
            <path
   id="polygon7"
   style="fill:#5cd3ff;stroke-width:0.99999938599"
   d="M 193.352 146.004 L 145.331 143.302 L 142.306 147.934 L 169.21 173.084 L 194.359 147.934 L 193.352 146.004 Z" /><path
   id="path1111"
   style="fill:#5cd3ff;stroke-width:0.99999938599"
   d="M 193.323 145.95 L 145.364 143.251 L 145.331 143.302 L 193.352 146.004 L 193.323 145.95 Z" /><path
   id="path1109"
   style="fill:#5cd3ff;stroke-width:0.99999938599"
   d="M 157.26 125.037 L 145.364 143.251 L 193.323 145.95 L 182.41 125.037 L 157.26 125.037 Z" />
            <path
   id="polygon12"
   style="fill:#2eb5ff;stroke-width:0.99999938599"
   d="M 188.672 219.036 L 155.731 238.055 L 162.145 257.147 L 174.669 257.147 L 188.672 219.036 Z" /><path
   id="path1212"
   style="fill:#2eb5ff;stroke-width:0.99999938599"
   d="M 188.7 218.96 L 155.714 238.005 L 155.731 238.055 L 188.672 219.036 L 188.7 218.96 Z" /><path
   id="path1210"
   style="fill:#2eb5ff;stroke-width:0.99999938599"
   d="M 199.509 189.547 L 144.396 204.314 L 155.714 238.005 L 188.7 218.96 L 199.509 189.547 Z" /><path
   id="path1208"
   style="fill:#2eb5ff;stroke-width:0.99999938599"
   d="M 199.531 189.486 L 144.379 204.264 L 144.396 204.314 L 199.509 189.547 L 199.531 189.486 Z" /><path
   id="path1206"
   style="fill:#2eb5ff;stroke-width:0.99999938599"
   d="M 142.104 147.428 L 130.081 161.706 L 144.379 204.264 L 199.531 189.486 L 209.739 161.706 L 194.459 147.428 L 169.158 172.979 L 142.104 147.428 Z" />
            <path
   id="polygon15"
   style="fill:#299acc;stroke-width:0.99999938599"
   d="M 155.867 238.73 L 129.716 245.737 L 136.468 257.271 L 162.019 257.021 L 155.867 238.73 Z" /><path
   id="path1292"
   style="fill:#299acc;stroke-width:0.99999938599"
   d="M 152.073 227.448 C 150.72 227.086 136.842 223.367 132.164 222.114 L 124.444 236.73 L 129.716 245.737 L 155.867 238.73 L 152.073 227.448 Z" /><path
   id="path1290"
   style="fill:#299acc;stroke-width:0.99999938599"
   d="M 143.231 201.16 L 132.164 222.114 C 136.842 223.367 150.72 227.086 152.073 227.448 L 143.231 201.16 Z" />
            <path
   id="polygon18"
   style="fill:#299acc;stroke-width:0.99999938599"
   d="M 177.694 248.882 L 174.669 257.147 L 199.218 257.147 L 205.164 248.882 L 177.694 248.882 Z" /><path
   id="path1369"
   style="fill:#299acc;stroke-width:0.99999938599"
   d="M 201.59 213.115 L 195.21 201.035 L 184.55 230.155 L 201.59 213.115 Z" /><path
   id="path1367"
   style="fill:#299acc;stroke-width:0.99999938599"
   d="M 201.59 213.115 L 184.55 230.155 L 177.694 248.882 L 205.164 248.882 L 213.996 236.606 L 201.59 213.115 Z" />
            <g
   id="g23">
                    <path
   id="polygon21"
   style="fill:#5cd3ff"
   d="m 201.898,213.434 22.845,-10.019 -18.06,19.063 z"
   class="st1" />
                    <!-- <path d="M870.4,759.4l-70,73.8l-18.5-35L870.4,759.4 M874.5,756.5l-94,41.2l19.6,37.2L874.5,756.5L874.5,756.5z"/> -->
                </g>
            <g
   id="Nose">
                <path
   id="polygon26"
   style="fill:#196fa3"
   d="m 160.891,95.8254 h 14.78 l -7.265,5.7616 z"
   class="st4" />
            </g>
            <g
   id="InsideMouth">
                <path
   id="polygon29"
   style="fill:#ffcccb"
   d="m 154.754,91.4416 13.527,10.0204 13.528,-10.0204 16.582,21.0424 -15.831,12.024 h -25.3 l -22.546,-14.855 z"
   class="st5" />
            </g>
            <g
   id="EyeWhiteRight">
                <g
   id="g34">
                    <path
   id="polygon32"
   style="fill:#ffffff"
   d="m 185.566,95.8254 -3.608,-4.4088 3.307,-8.1162 h 12.099 l 4.309,5.3858 -6.639,7.1392 z"
   class="st6" />
                    <!-- <path d="M762.9,279l16.8,21l-26.1,28h-37.3l-14.1-17.2l13-31.8H762.9 M763.3,278h-48.8L701,311l14.7,18H754l27-29L763.3,278
                        L763.3,278z"/> -->
                </g>
            </g>
            <g
   id="EyeWhiteLeft">
                <path
   id="polygon37"
   style="fill:#ffffff"
   d="M 154.63,91.3164 150.546,83.05 h -13.727 l -3.357,5.5109 6.964,7.2645 9.569,0.1253 z"
   class="st7" />
            </g>
            <g
   id="MouthDownOpen">
                <path
   id="Toungue"
   style="fill:#196fa3"
   d="m 173.041,117.117 c 0,0.765 -0.502,1.497 -1.394,2.038 -0.892,0.54 -2.103,0.844 -3.366,0.844 -1.262,0 -2.473,-0.304 -3.365,-0.844 -0.893,-0.541 -1.394,-1.273 -1.394,-2.038 0,-0.763 0.501,-1.496 1.394,-2.036 0.892,-0.541 2.103,-0.844 3.365,-0.844 1.263,0 2.474,0.303 3.366,0.844 0.892,0.54 1.394,1.273 1.394,2.036 z"
   class="st4" />
                <path
   id="Jaw"
   style="fill:#46d3f9"
   d="m 157.26,124.508 -22.546,-14.931 8.768,-8.366 14.779,15.456 h 20.29 l 12.275,-14.178 7.515,9.869 -15.781,12.15 z"
   class="st8" />
                <g
   id="TeethLeft">
                    <path
   id="polygon42"
   style="fill:#ffffff"
   d="m 157.109,111.607 1.152,4.133 1.303,-4.008 z"
   class="st6" />
                </g>
                <g
   id="TeethRight">
                    <path
   id="polygon45"
   style="fill:#ffffff"
   d="m 177.149,111.356 1.152,4.133 1.303,-4.007 z"
   class="st6" />
                </g>
            </g>
            <g
   id="MouthDownCLosed">
                <path
   id="JawClosed"
   style="fill:#46d3f9"
   d="m 143.482,101.211 14.779,11.147 10.02,-5.586 10.02,5.586 12.525,-9.869 7.515,9.869 -15.781,12.15 h -25.551 l -22.295,-14.931 z"
   class="st8" />
            </g>
            <g
   id="MouthUp">
                <path
   id="polygon51"
   style="fill:#2eb5ff;stroke-width:0.999999"
   d="m 168.275,101.206 -13.771,-10.0148 -11.022,10.0198 14.779,11.273 10.014,-5.758 z" /><path
   id="path985"
   style="fill:#2eb5ff;stroke-width:0.999999"
   d="m 168.275,101.206 v 5.52 l 0.006,-0.004 10.02,5.762 12.55,-9.82 -9.042,-11.4728 -13.528,10.0198 z" />
            </g>
            <path
   id="RightEarOuter"
   style="fill:#6bcef9"
   d="M 191.703,57.2486 220.26,13.6618 v 60.6207 z"
   class="st10" /><path
   id="RightEarInner"
   style="fill:#196fa3"
   d="m 196.913,60.3548 17.084,-29.659 V 70.5 Z"
   class="st4" />
            <path
   id="LeftEarOuter"
   style="fill:#6bcef9"
   d="M 114.048,13.6618 V 74.032 L 139.85,56.9981 Z"
   class="st10" />
            <path
   id="ShadowPath"
   style="fill:#196fa3;stroke-width:0.99999938599"
   d="M 169.181 127.638 L 180.931 127.638 L 183.812 126.888 L 182.635 124.657 L 172.223 124.595 L 169.181 127.638 Z" /><path
   id="path1123"
   style="fill:#196fa3;stroke-width:0.99999938599"
   d="M 172.149 124.595 L 157.41 124.508 L 155.756 126.787 L 158.136 127.638 L 169.106 127.638 L 172.149 124.595 Z" /><path
   id="path1121"
   style="fill:#196fa3;stroke-width:0.99999938599"
   d="M 172.149 124.595 L 169.106 127.638 L 169.181 127.638 L 172.223 124.595 L 172.149 124.595 Z" />
            <g
   id="MedEyes">
                <path
   id="MedEyeRight"
   class="st11"
   d="m 190.952,83.05 c 0,0 -6.764,6.0119 0,12.7754 0,0 6.763,-6.012 0,-12.7754 z" />
                <path
   id="MedEyeLeft"
   class="st11"
   d="m 145.611,83.05 c 0,0 -6.763,6.0119 0,12.7754 0,0 6.763,-6.012 0,-12.7754 z" />
            </g>
            <g
   id="BigEyes">
                <!-- <circle id="BigEyeRight" class="st11" cx="736.5" cy="303.5" r="25"/> -->
                <path
   id="BigEyeRight"
   class="st11"
   d="m 184.439,89.5629 c 0,2.2375 1.193,4.3049 3.131,5.4236 1.937,1.1184 4.324,1.1184 6.262,0 1.937,-1.1187 3.131,-3.1861 3.131,-5.4236 0,-2.2374 -1.194,-4.3048 -3.131,-5.4235 -1.938,-1.1185 -4.325,-1.1185 -6.262,0 -1.938,1.1187 -3.131,3.1861 -3.131,5.4235" />
                <!-- <circle id="BigEyeLeft" class="st11" cx="555" cy="303" r="25.5"/> -->
                <path
   id="BigEyeLeft"
   class="st11"
   d="m 138.973,89.4377 c 0,2.2374 1.193,4.3048 3.131,5.4235 1.938,1.1185 4.325,1.1185 6.263,0 1.937,-1.1187 3.131,-3.1861 3.131,-5.4235 0,-2.2374 -1.194,-4.3048 -3.131,-5.4235 -1.938,-1.1186 -4.325,-1.1186 -6.263,0 -1.938,1.1187 -3.131,3.1861 -3.131,5.4235" />
                <g
   id="Glare">
                    <path
   id="GlareRight"
   class="st6"
   d="m 192.329,86.1812 c 0,0.537 0.286,1.033 0.752,1.3016 0.465,0.2685 1.038,0.2685 1.503,0 0.464,-0.2686 0.751,-0.7646 0.751,-1.3016 0,-0.5371 -0.287,-1.0331 -0.751,-1.3016 -0.465,-0.2686 -1.038,-0.2686 -1.503,0 -0.466,0.2685 -0.752,0.7645 -0.752,1.3016" />
                    <path
   id="GlareLeft"
   class="st6"
   d="m 147.239,86.1812 c 0,0.537 0.287,1.033 0.752,1.3016 0.465,0.2685 1.038,0.2685 1.503,0 0.465,-0.2686 0.752,-0.7646 0.752,-1.3016 0,-0.5371 -0.287,-1.0331 -0.752,-1.3016 -0.465,-0.2686 -1.038,-0.2686 -1.503,0 -0.465,0.2685 -0.752,0.7645 -0.752,1.3016" />
                </g>
                <!-- <g id="GlareRight">
                    <circle class="st6" cx="749" cy="290" r="6"/>
                    
                    <path class="st6" d="M749,284.5c3,0,5.5,2.5,5.5,5.5s-2.5,5.5-5.5,5.5s-5.5-2.5-5.5-5.5S746,284.5,749,284.5 M749,283.5
                        c-3.6,0-6.5,2.9-6.5,6.5s2.9,6.5,6.5,6.5s6.5-2.9,6.5-6.5S752.6,283.5,749,283.5L749,283.5z"/>
                </g>
                <g id="GlareLeft">
                    <circle class="st6" cx="569" cy="290" r="6"/>
                    
                    <path d="M569,284.5c3,0,5.5,2.5,5.5,5.5s-2.5,5.5-5.5,5.5s-5.5-2.5-5.5-5.5S566,284.5,569,284.5 M569,283.5
                        c-3.6,0-6.5,2.9-6.5,6.5s2.9,6.5,6.5,6.5s6.5-2.9,6.5-6.5S572.6,283.5,569,283.5L569,283.5z"/>
                </g> -->
            </g>

            <g
   id="SmallEye">
                <path
   id="SmallEyeRight"
   class="st11"
   d="m 190.851,83.1752 c 0,0 -3.607,4.3837 0,12.6502 0,0 2.906,-7.2645 0,-12.6502 z" />
                <path
   id="SmallEyeLeft"
   class="st11"
   d="m 145.762,83.1752 c 0,0 -3.607,4.3837 0,12.6502 0,0 2.906,-7.2645 0,-12.6502 z" />
            </g>
            <path
   id="RightEarInner-3"
   style="fill:#196fa3;stroke-width:1"
   d="m 136.04803,60.248844 -17.084,-29.659 v 39.8042 z"
   class="st4" /><ellipse
   id="path915"
   style="fill:#000000;stroke:#000000;stroke-width:0.191425"
   cx="235.34648"
   cy="213.25813"
   rx="0.025443409"
   ry="0.023023641" /><ellipse
   id="path921"
   style="fill:#000000;stroke:#000000;stroke-width:0.191425"
   cx="228.49258"
   cy="217.30995"
   rx="0.025443409"
   ry="0.023023641" /><g
   id="g1761"
   style="opacity:1"><path
     style="baseline-shift:baseline;clip-rule:nonzero;color:#000000;color-interpolation:sRGB;color-interpolation-filters:linearRGB;color-rendering:auto;direction:ltr;display:inline;dominant-baseline:auto;enable-background:accumulate;fill:#000000;fill-opacity:1;fill-rule:nonzero;font-family:sans-serif;font-feature-settings:normal;font-size:medium;font-stretch:normal;font-style:normal;font-variant:normal;font-variant-alternates:normal;font-variant-caps:normal;font-variant-east-asian:normal;font-variant-ligatures:normal;font-variant-numeric:normal;font-variant-position:normal;font-variation-settings:normal;font-weight:normal;image-rendering:auto;inline-size:0;isolation:auto;letter-spacing:normal;line-height:normal;mix-blend-mode:normal;overflow:visible;shape-margin:0;shape-padding:0;shape-rendering:auto;solid-color:#000000;solid-opacity:1;stop-color:#000000;stop-opacity:1;stroke:none;stroke-dasharray:none;stroke-dashoffset:0;stroke-linecap:butt;stroke-linejoin:miter;stroke-miterlimit:4;stroke-opacity:1;stroke-width:0.18779898452947016;text-align:start;text-anchor:start;text-decoration:none;text-decoration-color:#000000;text-decoration-line:none;text-decoration-style:solid;text-indent:0;text-orientation:mixed;text-rendering:auto;text-transform:none;vector-effect:none;visibility:visible;white-space:normal;word-spacing:normal;writing-mode:lr-tb"
     d="M 65.302 195.856 C 65.302 195.868 65.2906 195.878 65.2765 195.878 C 65.2625 195.878 65.2511 195.868 65.251 195.856 C 65.2511 195.843 65.2625 195.834 65.2765 195.834 C 65.2906 195.834 65.302 195.843 65.302 195.856 Z"
     id="path1763" /><path
     style="baseline-shift:baseline;clip-rule:nonzero;color:#000000;color-interpolation:sRGB;color-interpolation-filters:linearRGB;color-rendering:auto;direction:ltr;display:inline;dominant-baseline:auto;enable-background:accumulate;fill:#000000;fill-opacity:1;fill-rule:nonzero;font-family:sans-serif;font-feature-settings:normal;font-size:medium;font-stretch:normal;font-style:normal;font-variant:normal;font-variant-alternates:normal;font-variant-caps:normal;font-variant-east-asian:normal;font-variant-ligatures:normal;font-variant-numeric:normal;font-variant-position:normal;font-variation-settings:normal;font-weight:normal;image-rendering:auto;inline-size:0;isolation:auto;letter-spacing:normal;line-height:normal;mix-blend-mode:normal;overflow:visible;shape-margin:0;shape-padding:0;shape-rendering:auto;solid-color:#000000;solid-opacity:1;stop-color:#000000;stop-opacity:1;stroke:none;stroke-dasharray:none;stroke-dashoffset:0;stroke-linecap:butt;stroke-linejoin:miter;stroke-miterlimit:4;stroke-opacity:1;stroke-width:0.18779898452947016;text-align:start;text-anchor:start;text-decoration:none;text-decoration-color:#000000;text-decoration-line:none;text-decoration-style:solid;text-indent:0;text-orientation:mixed;text-rendering:auto;text-transform:none;vector-effect:none;visibility:visible;white-space:normal;word-spacing:normal;writing-mode:lr-tb"
     d="M 65.2768 195.746 C 65.2084 195.746 65.1505 195.796 65.1504 195.856 C 65.1505 195.915 65.2084 195.965 65.2768 195.965 C 65.3452 195.965 65.4031 195.915 65.4032 195.856 C 65.4031 195.796 65.3453 195.746 65.2768 195.746 Z M 65.2768 195.79 C 65.3171 195.79 65.3511 195.821 65.3512 195.856 C 65.3511 195.891 65.3171 195.922 65.2768 195.922 C 65.2365 195.922 65.201 195.891 65.2009 195.856 C 65.201 195.821 65.2365 195.79 65.2768 195.79 Z"
     id="path1765" /></g><g
   id="g1767"
   style="opacity:1"><path
     style="baseline-shift:baseline;clip-rule:nonzero;color:#000000;color-interpolation:sRGB;color-interpolation-filters:linearRGB;color-rendering:auto;direction:ltr;display:inline;dominant-baseline:auto;enable-background:accumulate;fill:#000000;fill-opacity:1;fill-rule:nonzero;font-family:sans-serif;font-feature-settings:normal;font-size:medium;font-stretch:normal;font-style:normal;font-variant:normal;font-variant-alternates:normal;font-variant-caps:normal;font-variant-east-asian:normal;font-variant-ligatures:normal;font-variant-numeric:normal;font-variant-position:normal;font-variation-settings:normal;font-weight:normal;image-rendering:auto;inline-size:0;isolation:auto;letter-spacing:normal;line-height:normal;mix-blend-mode:normal;overflow:visible;shape-margin:0;shape-padding:0;shape-rendering:auto;solid-color:#000000;solid-opacity:1;stop-color:#000000;stop-opacity:1;stroke:none;stroke-dasharray:none;stroke-dashoffset:0;stroke-linecap:butt;stroke-linejoin:miter;stroke-miterlimit:4;stroke-opacity:1;stroke-width:0.18779898452947016;text-align:start;text-anchor:start;text-decoration:none;text-decoration-color:#000000;text-decoration-line:none;text-decoration-style:solid;text-indent:0;text-orientation:mixed;text-rendering:auto;text-transform:none;vector-effect:none;visibility:visible;white-space:normal;word-spacing:normal;writing-mode:lr-tb"
     d="M 58.4388 199.75 C 58.4387 199.762 58.4273 199.772 58.4133 199.772 C 58.3992 199.772 58.3878 199.762 58.3878 199.75 C 58.3878 199.738 58.3992 199.728 58.4133 199.728 C 58.4274 199.728 58.4388 199.738 58.4388 199.75 Z"
     id="path1769" /><path
     style="baseline-shift:baseline;clip-rule:nonzero;color:#000000;color-interpolation:sRGB;color-interpolation-filters:linearRGB;color-rendering:auto;direction:ltr;display:inline;dominant-baseline:auto;enable-background:accumulate;fill:#000000;fill-opacity:1;fill-rule:nonzero;font-family:sans-serif;font-feature-settings:normal;font-size:medium;font-stretch:normal;font-style:normal;font-variant:normal;font-variant-alternates:normal;font-variant-caps:normal;font-variant-east-asian:normal;font-variant-ligatures:normal;font-variant-numeric:normal;font-variant-position:normal;font-variation-settings:normal;font-weight:normal;image-rendering:auto;inline-size:0;isolation:auto;letter-spacing:normal;line-height:normal;mix-blend-mode:normal;overflow:visible;shape-margin:0;shape-padding:0;shape-rendering:auto;solid-color:#000000;solid-opacity:1;stop-color:#000000;stop-opacity:1;stroke:none;stroke-dasharray:none;stroke-dashoffset:0;stroke-linecap:butt;stroke-linejoin:miter;stroke-miterlimit:4;stroke-opacity:1;stroke-width:0.18779898452947016;text-align:start;text-anchor:start;text-decoration:none;text-decoration-color:#000000;text-decoration-line:none;text-decoration-style:solid;text-indent:0;text-orientation:mixed;text-rendering:auto;text-transform:none;vector-effect:none;visibility:visible;white-space:normal;word-spacing:normal;writing-mode:lr-tb"
     d="M 58.4135 199.64 C 58.3449 199.64 58.2869 199.69 58.287 199.75 C 58.2871 199.809 58.345 199.86 58.4135 199.86 C 58.4819 199.86 58.5398 199.809 58.5399 199.75 C 58.54 199.69 58.482 199.64 58.4135 199.64 Z M 58.4135 199.685 C 58.4538 199.685 58.4878 199.715 58.4878 199.75 C 58.4879 199.785 58.4539 199.816 58.4135 199.816 C 58.3731 199.816 58.3376 199.785 58.3376 199.75 C 58.3377 199.715 58.3731 199.685 58.4135 199.685 Z"
     id="path1771" /></g><path
   style="color:#000000;font-style:normal;font-variant:normal;font-weight:normal;font-stretch:normal;font-size:medium;line-height:normal;font-family:sans-serif;font-variant-ligatures:normal;font-variant-position:normal;font-variant-caps:normal;font-variant-numeric:normal;font-variant-alternates:normal;font-variant-east-asian:normal;font-feature-settings:normal;font-variation-settings:normal;text-indent:0;text-align:start;text-decoration:none;text-decoration-line:none;text-decoration-style:solid;text-decoration-color:#000000;letter-spacing:normal;word-spacing:normal;text-transform:none;writing-mode:lr-tb;direction:ltr;text-orientation:mixed;dominant-baseline:auto;baseline-shift:baseline;text-anchor:start;white-space:normal;shape-padding:0;shape-margin:0;inline-size:0;clip-rule:nonzero;display:inline;overflow:visible;visibility:visible;isolation:auto;mix-blend-mode:normal;color-interpolation:sRGB;color-interpolation-filters:linearRGB;solid-color:#000000;solid-opacity:1;vector-effect:none;fill:#000000;fill-opacity:1;fill-rule:nonzero;stroke:none;stroke-width:1.03985;stroke-linecap:round;stroke-linejoin:round;stroke-miterlimit:4;stroke-dasharray:none;stroke-dashoffset:0;stroke-opacity:1;paint-order:fill markers stroke;color-rendering:auto;image-rendering:auto;shape-rendering:auto;text-rendering:auto;enable-background:accumulate;stop-color:#000000"
   d="m 82.5903,162.441 c 0.1569,-0.895 0.4221,-1.772 0.6829,-2.648 0.3316,-1.279 0.9227,-2.367 1.7094,-3.477 0.6673,-0.837 1.4906,-1.614 2.5768,-2.041 0.1907,-0.075 0.3928,-0.126 0.5892,-0.189 0.9771,-0.207 2.0065,-0.101 2.7942,0.483 0.1754,0.13 0.3205,0.288 0.4808,0.432 0.1468,0.191 0.3136,0.372 0.4406,0.574 0.7344,1.167 0.9537,2.565 1.0119,3.874 0.0196,0.441 -0.0014,0.882 -0.0021,1.323 -0.1721,3.187 -0.8328,6.334 -1.4437,9.474 -0.4378,2.457 -1.0522,4.931 -0.9095,7.433 0.024,0.419 0.0969,0.835 0.1454,1.253 0.2953,1.379 0.7899,2.801 2.0648,3.75 0.7791,0.579 1.0672,0.58 2.0191,0.871 0.4115,0.03 0.8218,0.102 1.2344,0.089 2.1117,-0.07 4.0545,-1.093 5.6425,-2.223 0.496,-0.353 0.949,-0.749 1.424,-1.124 2.648,-2.337 4.686,-5.131 6.411,-8.034 0.369,-0.62 0.703,-1.256 1.054,-1.885 1.2,-2.289 2.191,-4.663 2.882,-7.107 0.363,-1.285 0.409,-1.659 0.655,-2.933 0.203,-1.364 0.338,-2.758 0.116,-4.129 -0.087,-0.538 -0.156,-0.687 -0.32,-1.184 -0.183,-0.417 -0.487,-1.05 -1.157,-0.89 -0.404,0.096 -0.575,0.364 -0.828,0.622 -0.126,0.198 -0.27,0.388 -0.378,0.593 -0.886,1.676 -1.135,3.853 -1.378,5.665 -0.328,3.72 -0.413,7.452 -0.574,11.179 -0.199,4.285 -0.477,8.566 -0.927,12.836 -0.455,4.344 -1.194,8.657 -2.06,12.951 -0.673,3.214 -1.369,6.431 -2.401,9.575 -0.175,0.531 -0.371,1.056 -0.556,1.584 -0.754,1.812 -1.522,3.832 -2.929,5.362 -0.144,0.156 -0.314,0.293 -0.471,0.44 -0.2144,0.113 -0.4265,0.316 -0.7105,0.2 -0.2275,-0.093 -0.4341,-0.532 -0.4806,-0.666 -0.2471,-0.713 -0.1984,-1.113 -0.2341,-1.886 0.1448,-2.929 1.1359,-5.771 2.4022,-8.471 0.305,-0.649 0.647,-1.284 0.971,-1.927 1.856,-3.435 4.263,-6.63 7.136,-9.489 0.575,-0.572 1.188,-1.116 1.782,-1.674 2.324,-2.073 4.947,-3.871 7.744,-5.439 1.603,-0.898 2.436,-1.283 4.09,-2.1 3.446,-1.649 7.03,-3.062 10.534,-4.614 1.244,-0.625 2.872,-1.287 3.717,-2.353 0.102,-0.129 0.171,-0.277 0.256,-0.415 0.034,-0.138 0.1,-0.273 0.103,-0.415 0.016,-0.821 -0.972,-1.157 -1.757,-1.247 -0.323,-0.036 -0.652,-0.023 -0.978,-0.035 -2.475,0.143 -4.804,0.954 -6.982,1.943 -0.532,0.242 -1.05,0.509 -1.575,0.763 -2.738,1.411 -5.253,3.147 -7.43,5.166 -0.434,0.403 -0.839,0.827 -1.258,1.241 -1.865,2.002 -3.554,4.169 -4.634,6.582 -0.189,0.423 -0.335,0.859 -0.502,1.289 -0.519,1.745 -0.987,3.703 -0.141,5.44 0.14,0.286 0.351,0.542 0.526,0.812 0.25,0.223 0.465,0.48 0.749,0.668 1.451,0.964 3.402,0.872 5.078,0.512 0.536,-0.115 1.051,-0.292 1.577,-0.438 2.9,-1.021 5.46,-2.645 7.705,-4.523 0.451,-0.377 0.875,-0.778 1.312,-1.168 1.511,-1.432 2.787,-3.032 3.818,-4.755 0.561,-0.938 0.709,-1.282 1.184,-2.239 0.821,-1.726 1.405,-3.526 1.864,-5.348 0.122,-0.475 0.22,-0.955 0.289,-1.438 0.025,-0.176 0.033,-0.357 0.078,-0.531 -0.147,0.042 -0.301,0.068 -0.442,0.125 -0.014,0.006 0.006,0.148 0.01,0.217 0.015,0.282 0.008,0.566 0.007,0.848 -0.006,1 0.042,2 0.051,3 0.01,1.518 -0.039,3.035 -0.11,4.552 -0.101,1.715 -0.083,3.434 0.061,5.146 0.152,1.233 0.368,2.489 0.994,3.618 0.099,0.178 0.221,0.345 0.332,0.518 0.458,0.569 1.064,1.035 1.901,1.086 0.612,0.037 0.806,-0.07 1.396,-0.226 1.54,-0.624 2.705,-1.732 3.632,-2.947 0.233,-0.305 0.439,-0.625 0.659,-0.938 1.501,-2.309 2.256,-4.898 3.083,-7.431 0.651,-1.922 1.243,-3.864 2.079,-5.735 0.568,-1.271 0.688,-1.42 1.373,-2.64 1.023,-1.656 2.304,-3.195 3.944,-4.433 1.038,-0.784 1.36,-0.906 2.511,-1.535 1.554,-0.722 3.259,-1.215 5.042,-1.135 1.027,0.046 1.213,0.156 2.171,0.424 0.324,0.154 0.666,0.281 0.971,0.46 1.454,0.85 2.435,2.192 3.048,3.594 0.19,0.435 0.32,0.888 0.48,1.332 0.587,2.024 0.681,4.125 0.324,6.188 -0.236,1.365 -0.412,1.697 -0.87,3.004 -0.836,1.824 -1.88,3.729 -3.752,4.928 -0.236,0.15 -0.5,0.263 -0.75,0.395 -0.722,0.263 -1.678,0.456 -2.162,-0.258 -0.331,-0.488 -0.279,-0.809 -0.342,-1.379 0.045,-0.356 0.057,-0.717 0.136,-1.068 0.207,-0.923 0.608,-1.872 1.018,-2.734 0.811,-1.704 1.828,-3.329 2.809,-4.962 2.203,-3.492 4.266,-7.047 6.368,-10.585 2.052,-3.407 4.205,-6.766 6.254,-10.174 1.519,-2.545 2.916,-5.171 3.69,-7.97 0.136,-0.492 0.23,-0.993 0.344,-1.489 0.36,-1.994 0.339,-4.036 -0.151,-6.012 -0.062,-0.252 -0.147,-0.499 -0.221,-0.748 -0.147,-0.379 -0.592,-1.893 -1.414,-1.538 -0.163,0.07 -0.254,0.227 -0.381,0.34 -0.086,0.191 -0.193,0.377 -0.259,0.574 -0.175,0.531 -0.292,1.308 -0.358,1.836 -0.174,1.385 -0.207,2.772 -0.238,4.164 -0.022,3.715 0.157,7.429 0.245,11.143 0.103,3.815 0.027,7.631 -0.051,11.446 -0.039,2.954 -0.108,5.907 -0.127,8.861 0.006,0.814 0.013,1.628 0.059,2.441 0.006,0.103 0.027,0.667 0.109,0.733 0.115,0.095 0.297,0.097 0.446,0.145 0.138,-0.145 0.299,-0.275 0.414,-0.435 0.148,-0.204 0.253,-0.43 0.369,-0.65 0.394,-0.747 0.635,-1.306 0.996,-2.083 0.72,-1.551 0.554,-1.192 1.323,-2.8 0.987,-2.004 1.998,-4.001 3.167,-5.931 0.654,-1.079 0.853,-1.349 1.544,-2.373 0.863,-1.122 1.696,-2.547 3.227,-3.09 0.195,-0.069 0.406,-0.095 0.609,-0.143 0.201,0.004 0.405,-0.018 0.603,0.011 1.511,0.219 2.502,1.628 3.271,2.629 1.525,2.237 2.62,4.667 3.876,7.022 0.514,0.882 0.995,1.796 1.673,2.597 0.284,0.335 0.684,0.757 1.154,0.921 0.238,0.083 0.505,0.074 0.758,0.111 0.291,-0.08 0.603,-0.117 0.873,-0.241 0.726,-0.335 1.394,-0.968 1.894,-1.504 1.265,-1.357 2.205,-2.902 3.169,-4.423 1.976,-3.251 3.494,-6.692 5.342,-9.996 0.38,-0.679 0.791,-1.344 1.187,-2.017 1.931,-2.77 0.875,-1.397 3.185,-4.108 0.219,-0.258 -0.201,-0.527 -0.42,-0.27 v 0 c -2.344,2.755 -1.273,1.361 -3.23,4.172 -0.399,0.678 -0.814,1.349 -1.197,2.034 -1.842,3.294 -3.356,6.724 -5.325,9.966 -0.806,1.273 -1.201,1.966 -2.112,3.154 -0.71,0.927 -1.54,1.973 -2.667,2.564 -0.194,0.102 -0.421,0.146 -0.631,0.219 -0.178,-0.012 -0.366,0.015 -0.534,-0.037 -0.417,-0.13 -0.764,-0.505 -1.008,-0.792 -0.664,-0.783 -1.133,-1.678 -1.637,-2.541 -1.268,-2.376 -2.371,-4.828 -3.916,-7.084 -0.89,-1.152 -1.955,-2.623 -3.703,-2.83 -0.246,-0.029 -0.498,0.005 -0.746,0.007 -0.687,0.174 -0.813,0.155 -1.42,0.523 -1.201,0.727 -1.952,1.873 -2.725,2.917 -0.698,1.034 -0.899,1.306 -1.56,2.397 -1.175,1.94 -2.192,3.948 -3.184,5.962 -0.628,1.315 -1.228,2.64 -1.856,3.955 -0.145,0.303 -0.299,0.602 -0.449,0.902 -0.114,0.203 -0.239,0.401 -0.341,0.608 -0.037,0.074 -0.049,0.155 -0.073,0.232 0.054,0.064 0.07,0.202 0.161,0.193 0.08,-0.008 -0.051,-0.134 -0.061,-0.203 -0.022,-0.146 -0.025,-0.293 -0.033,-0.439 -0.046,-0.807 -0.053,-1.615 -0.059,-2.422 0.019,-2.952 0.089,-5.904 0.127,-8.856 0.078,-3.821 0.154,-7.642 0.051,-11.463 -0.088,-3.708 -0.267,-7.416 -0.245,-11.126 0.031,-1.374 0.064,-2.743 0.234,-4.112 0.069,-0.559 0.165,-1.186 0.33,-1.738 0.046,-0.154 0.12,-0.301 0.18,-0.452 0.029,-0.059 0.063,-0.117 0.088,-0.178 0.011,-0.026 -0.011,-0.079 0.02,-0.081 0.33,-0.02 0.705,1.129 0.771,1.29 0.07,0.239 0.153,0.475 0.213,0.717 0.478,1.919 0.499,3.903 0.152,5.841 -0.112,0.485 -0.203,0.975 -0.335,1.457 -0.764,2.768 -2.149,5.365 -3.65,7.881 -2.049,3.409 -4.203,6.769 -6.255,10.176 -2.102,3.537 -4.164,7.092 -6.367,10.583 -0.991,1.65 -2.018,3.291 -2.835,5.013 -0.423,0.892 -0.843,1.889 -1.049,2.845 -0.082,0.384 -0.09,0.776 -0.135,1.165 0.091,0.677 0.036,1.085 0.495,1.654 0.471,0.584 1.252,0.72 2.011,0.57 0.273,-0.054 0.527,-0.166 0.79,-0.249 0.273,-0.146 0.561,-0.273 0.818,-0.439 1.945,-1.259 3.045,-3.231 3.91,-5.139 0.47,-1.346 0.65,-1.686 0.891,-3.091 0.364,-2.124 0.262,-4.286 -0.346,-6.369 -0.168,-0.461 -0.304,-0.932 -0.504,-1.385 -0.658,-1.492 -1.717,-2.909 -3.274,-3.804 -0.334,-0.193 -0.707,-0.329 -1.061,-0.493 -1.036,-0.283 -1.238,-0.401 -2.344,-0.445 -1.878,-0.076 -3.671,0.44 -5.305,1.205 -1.19,0.651 -1.524,0.779 -2.596,1.592 -1.683,1.275 -3,2.857 -4.051,4.56 -0.696,1.242 -0.818,1.394 -1.394,2.686 -0.84,1.88 -1.437,3.832 -2.091,5.765 -0.814,2.493 -1.554,5.043 -3.027,7.318 -0.211,0.303 -0.411,0.613 -0.635,0.909 -0.862,1.134 -1.941,2.18 -3.367,2.78 -0.202,0.057 -0.398,0.134 -0.607,0.173 -0.927,0.174 -1.551,-0.195 -2.077,-0.822 -0.101,-0.157 -0.214,-0.309 -0.305,-0.472 -0.605,-1.083 -0.807,-2.292 -0.955,-3.476 -0.144,-1.695 -0.159,-3.396 -0.06,-5.094 0.071,-1.524 0.121,-3.049 0.11,-4.575 -0.009,-0.998 -0.057,-1.996 -0.05,-2.995 0,-0.358 0.04,-0.745 -0.031,-1.1 -0.013,-0.068 0.013,-0.176 -0.061,-0.199 -0.162,-0.052 -0.345,0.01 -0.517,0.015 -0.15,0.65 -0.144,1.326 -0.366,1.966 -0.451,1.793 -1.026,3.565 -1.834,5.265 -0.466,0.942 -0.61,1.276 -1.161,2.199 -1.008,1.687 -2.256,3.255 -3.735,4.658 -0.429,0.383 -0.845,0.778 -1.288,1.149 -2.191,1.834 -4.686,3.423 -7.514,4.427 -0.503,0.141 -0.996,0.31 -1.508,0.423 -1.498,0.328 -3.294,0.46 -4.617,-0.384 -0.251,-0.161 -0.444,-0.383 -0.665,-0.574 -0.161,-0.24 -0.354,-0.466 -0.481,-0.721 -0.82,-1.641 -0.347,-3.509 0.136,-5.161 0.162,-0.418 0.302,-0.842 0.486,-1.253 1.057,-2.37 2.718,-4.497 4.547,-6.464 0.412,-0.407 0.81,-0.825 1.236,-1.22 2.143,-1.99 4.619,-3.7 7.315,-5.091 0.516,-0.25 1.026,-0.512 1.55,-0.751 2.101,-0.956 4.347,-1.745 6.733,-1.897 0.53,0.014 2.197,-0.016 2.241,0.744 0.005,0.097 -0.035,0.193 -0.052,0.289 -0.065,0.112 -0.115,0.232 -0.195,0.336 -0.786,1.013 -2.387,1.644 -3.553,2.239 -3.51,1.554 -7.102,2.97 -10.554,4.623 -1.669,0.824 -2.508,1.212 -4.126,2.119 -2.83,1.587 -5.483,3.407 -7.834,5.507 -0.601,0.564 -1.22,1.114 -1.801,1.693 -2.904,2.891 -5.337,6.122 -7.212,9.596 -0.327,0.649 -0.673,1.292 -0.981,1.949 -1.2921,2.757 -2.2982,5.659 -2.4356,8.65 0.0399,0.758 -0.0064,1.363 0.2941,2.078 0.238,0.567 0.7668,1.098 1.5265,0.852 0.19,-0.062 0.34,-0.193 0.51,-0.29 0.171,-0.162 0.356,-0.314 0.514,-0.486 1.445,-1.58 2.226,-3.622 3.002,-5.491 0.187,-0.533 0.385,-1.064 0.561,-1.599 1.036,-3.157 1.735,-6.388 2.411,-9.614 0.869,-4.307 1.609,-8.632 2.066,-12.988 0.45,-4.279 0.729,-8.567 0.928,-12.86 0.161,-3.716 0.246,-7.436 0.571,-11.144 0.236,-1.765 0.474,-3.861 1.318,-5.5 0.093,-0.181 0.215,-0.349 0.323,-0.523 0.036,-0.041 0.419,-0.513 0.581,-0.511 0.296,0.005 0.405,0.475 0.499,0.617 0.154,0.46 0.219,0.603 0.302,1.103 0.218,1.331 0.084,2.684 -0.111,4.01 -0.242,1.253 -0.288,1.624 -0.645,2.889 -0.682,2.417 -1.661,4.764 -2.848,7.028 -0.347,0.621 -0.677,1.251 -1.042,1.865 -1.698,2.858 -3.701,5.612 -6.304,7.916 -0.46,0.364 -0.9,0.75 -1.382,1.093 -1.4894,1.065 -3.3106,2.048 -5.2937,2.137 -0.3684,0.016 -0.736,-0.044 -1.1039,-0.065 -0.8449,-0.246 -1.1104,-0.247 -1.8061,-0.751 -1.2004,-0.871 -1.6474,-2.208 -1.9282,-3.488 -0.0476,-0.402 -0.1191,-0.803 -0.1427,-1.207 -0.1442,-2.476 0.4714,-4.925 0.9022,-7.357 0.6157,-3.165 1.2812,-6.337 1.451,-9.549 10e-5,-0.454 0.0212,-0.908 3e-4,-1.362 -0.0641,-1.386 -0.308,-2.861 -1.0995,-4.09 -0.1447,-0.225 -0.3339,-0.425 -0.5009,-0.638 -0.472,-0.411 -0.5799,-0.573 -1.172,-0.837 -0.8337,-0.371 -1.7687,-0.384 -2.6583,-0.185 -0.2186,0.072 -0.4436,0.13 -0.6558,0.215 -1.1657,0.468 -2.0561,1.298 -2.7723,2.203 -0.8178,1.157 -1.4216,2.27 -1.7701,3.601 -0.2653,0.89 -0.5344,1.783 -0.6937,2.693 -0.0553,0.317 0.461,0.385 0.5164,0.068 z"
   id="path1781" /><path
   style="color:#000000;font-style:normal;font-variant:normal;font-weight:normal;font-stretch:normal;font-size:medium;line-height:normal;font-family:sans-serif;font-variant-ligatures:normal;font-variant-position:normal;font-variant-caps:normal;font-variant-numeric:normal;font-variant-alternates:normal;font-variant-east-asian:normal;font-feature-settings:normal;font-variation-settings:normal;text-indent:0;text-align:start;text-decoration:none;text-decoration-line:none;text-decoration-style:solid;text-decoration-color:#000000;letter-spacing:normal;word-spacing:normal;text-transform:none;writing-mode:lr-tb;direction:ltr;text-orientation:mixed;dominant-baseline:auto;baseline-shift:baseline;text-anchor:start;white-space:normal;shape-padding:0;shape-margin:0;inline-size:0;clip-rule:nonzero;display:inline;overflow:visible;visibility:visible;isolation:auto;mix-blend-mode:normal;color-interpolation:sRGB;color-interpolation-filters:linearRGB;solid-color:#000000;solid-opacity:1;vector-effect:none;fill-opacity:1;fill-rule:nonzero;stroke:none;stroke-width:1.03985;stroke-linecap:round;stroke-linejoin:round;stroke-miterlimit:4;stroke-dasharray:none;stroke-dashoffset:0;stroke-opacity:1;paint-order:fill markers stroke;color-rendering:auto;image-rendering:auto;shape-rendering:auto;text-rendering:auto;enable-background:accumulate;stop-color:#000000"
   d="m 180.649,141.448 c -0.385,0.166 -0.492,0.401 -0.533,0.438 -0.052,0.046 -0.093,0.1 -0.12,0.16 -0.074,0.164 -0.191,0.363 -0.275,0.618 -0.198,0.596 -0.309,1.379 -0.377,1.917 -0.177,1.413 -0.209,2.813 -0.241,4.206 0,0.002 0,0.005 0,0.007 -0.014,2.518 0.087,5.021 0.166,7.528 -0.502,0.969 -1.013,1.936 -1.579,2.885 -2.044,3.401 -4.197,6.761 -6.253,10.175 l -0.002,0.002 c -0.736,1.238 -1.492,2.462 -2.225,3.7 -0.657,-0.975 -1.448,-1.885 -2.566,-2.528 -0.393,-0.226 -0.782,-0.366 -1.105,-0.516 -0.031,-0.014 -0.063,-0.026 -0.097,-0.035 -1.014,-0.277 -1.337,-0.421 -2.485,-0.467 -2.011,-0.081 -3.904,0.471 -5.595,1.262 -0.012,0.005 -0.023,0.011 -0.034,0.017 -1.178,0.645 -1.571,0.808 -2.664,1.637 -1.747,1.323 -3.103,2.954 -4.177,4.696 -0.003,0.006 -0.006,0.011 -0.009,0.017 -0.693,1.236 -0.832,1.421 -1.413,2.722 -0.854,1.914 -1.455,3.88 -2.107,5.804 l -0.001,0.005 c -0.817,2.502 -1.552,5.012 -2.977,7.213 -0.214,0.308 -0.408,0.608 -0.614,0.879 -0.828,1.09 -1.843,2.057 -3.133,2.603 -0.203,0.061 -0.374,0.122 -0.492,0.144 -0.359,0.067 -0.592,0.03 -0.82,-0.07 -0.225,-0.099 -0.452,-0.288 -0.681,-0.559 -0.1,-0.153 -0.197,-0.289 -0.262,-0.404 -0.554,-0.991 -0.755,-2.139 -0.901,-3.308 -0.142,-1.671 -0.157,-3.349 -0.059,-5.025 v -0.005 c 0.071,-1.528 0.122,-3.061 0.111,-4.597 v -0.002 c -0.009,-1.009 -0.057,-2.005 -0.05,-2.988 v -0.003 c 0,-0.327 0.049,-0.739 -0.039,-1.182 v -0.001 c 0.011,0.057 0.009,0.017 -0.002,-0.079 -0.005,-0.049 -0.013,-0.12 -0.068,-0.218 -0.055,-0.099 -0.192,-0.224 -0.35,-0.274 -0.175,-0.056 -0.183,-0.012 -0.3,-0.007 0.46,-0.309 0.946,-0.597 1.281,-1.019 0.149,-0.188 0.222,-0.355 0.288,-0.462 0.025,-0.039 0.043,-0.082 0.054,-0.126 0.019,-0.078 0.109,-0.243 0.114,-0.509 0.012,-0.581 -0.376,-1.05 -0.827,-1.31 -0.451,-0.26 -0.963,-0.374 -1.414,-0.425 -0.389,-0.045 -0.735,-0.029 -1.028,-0.039 -0.02,-0.001 -0.04,0 -0.06,10e-4 -2.591,0.15 -4.992,0.992 -7.204,1.996 -0.55,0.25 -1.072,0.519 -1.588,0.769 -0.004,0.002 -0.008,0.004 -0.012,0.007 -2.782,1.433 -5.339,3.197 -7.554,5.252 -0.449,0.416 -0.857,0.846 -1.269,1.252 -0.005,0.005 -0.01,0.01 -0.014,0.015 -1.291,1.386 -2.422,2.9 -3.417,4.487 -1.18,0.844 -2.328,1.722 -3.398,2.677 -0.003,0.003 -0.006,0.006 -0.009,0.009 -0.546,0.514 -1.116,1.03 -1.669,1.57 0.376,-2.281 0.848,-4.547 1.089,-6.846 0.451,-4.29 0.732,-8.587 0.931,-12.885 v -0.002 c 0.015,-0.338 0.039,-0.673 0.052,-1.011 0.115,-0.209 0.236,-0.422 0.352,-0.628 0.002,-0.004 0.004,-0.007 0.006,-0.011 1.212,-2.312 2.216,-4.714 2.917,-7.192 0.366,-1.297 0.418,-1.7 0.663,-2.968 0.001,-0.006 0.002,-0.013 0.003,-0.019 0.205,-1.38 0.348,-2.816 0.115,-4.259 -0.091,-0.561 -0.175,-0.763 -0.337,-1.25 -0.004,-0.013 -0.009,-0.026 -0.014,-0.039 -0.095,-0.216 -0.224,-0.521 -0.49,-0.799 -0.266,-0.277 -0.8,-0.514 -1.337,-0.386 -0.619,0.148 -0.894,0.561 -1.105,0.777 -0.024,0.024 -0.045,0.05 -0.063,0.078 -0.112,0.177 -0.265,0.376 -0.397,0.626 -0.945,1.789 -1.183,4.006 -1.425,5.811 -0.001,0.007 -0.001,0.013 -0.001,0.02 -0.292,3.3 -0.379,6.597 -0.509,9.886 -0.176,0.321 -0.351,0.648 -0.536,0.959 -1.681,2.83 -3.655,5.538 -6.2,7.792 -0.467,0.371 -0.897,0.747 -1.344,1.066 -1.4479,1.034 -3.1794,1.946 -4.9685,2.026 -0.2545,0.011 -0.5792,-0.032 -0.9431,-0.059 -0.8121,-0.232 -0.9556,-0.193 -1.5797,-0.646 -1.0334,-0.749 -1.4605,-1.949 -1.7344,-3.192 -0.0493,-0.408 -0.1158,-0.793 -0.1369,-1.155 -0.1391,-2.388 0.4597,-4.802 0.894,-7.251 l 0.0015,-0.007 c 0.6146,-3.158 1.2858,-6.349 1.4578,-9.602 2e-4,-0.007 2e-4,-0.014 0,-0.022 0,-0.44 0.0221,-0.9 0,-1.38 -0.0657,-1.421 -0.3102,-2.971 -1.1707,-4.307 -0.1768,-0.275 -0.3781,-0.486 -0.5266,-0.675 -0.0193,-0.025 -0.0412,-0.048 -0.0654,-0.069 -0.4504,-0.393 -0.662,-0.637 -1.312,-0.927 -0.9799,-0.436 -2.0658,-0.443 -3.0524,-0.222 -0.0196,0.004 -0.039,0.009 -0.058,0.016 -0.1938,0.063 -0.4329,0.124 -0.6931,0.228 -1.296,0.52 -2.2491,1.423 -2.9974,2.368 -0.0056,0.007 -0.0111,0.014 -0.0163,0.021 -0.8344,1.181 -1.469,2.347 -1.8341,3.734 l -0.0015,0.004 c -0.2647,0.888 -0.5387,1.795 -0.7036,2.738 -0.0336,0.192 0.0238,0.409 0.1606,0.56 0.1369,0.152 0.3291,0.237 0.5236,0.263 0.1946,0.025 0.4066,-0.007 0.5891,-0.117 0.1825,-0.109 0.3115,-0.301 0.3451,-0.493 0.151,-0.861 0.4112,-1.723 0.6723,-2.6 0.0011,-0.004 0.0021,-0.009 0.003,-0.014 0.3139,-1.211 0.8703,-2.24 1.6318,-3.316 0.6355,-0.796 1.3935,-1.496 2.3413,-1.869 0.1298,-0.051 0.3073,-0.097 0.5043,-0.159 0.8419,-0.175 1.6591,-0.083 2.2863,0.382 0.1113,0.082 0.2431,0.217 0.4061,0.367 0.1528,0.195 0.2988,0.36 0.3882,0.502 0.6669,1.06 0.8864,2.385 0.9431,3.66 0.0181,0.408 -2e-4,0.836 -0.0015,1.282 -0.1699,3.144 -0.8253,6.272 -1.437,9.416 0,0.002 0,0.005 0,0.007 -0.4344,2.437 -1.0638,4.945 -0.9163,7.531 0.0258,0.452 0.1007,0.876 0.1473,1.278 0.0018,0.013 0.0043,0.026 0.0074,0.04 0.3033,1.416 0.8206,2.964 2.2506,4.028 0.8305,0.618 1.278,0.681 2.1971,0.961 0.0446,0.014 0.0911,0.023 0.1383,0.026 0.367,0.027 0.7998,0.106 1.3016,0.089 2.306,-0.075 4.3411,-1.17 5.9741,-2.332 0.526,-0.374 0.986,-0.776 1.447,-1.139 0.008,-0.006 0.015,-0.013 0.022,-0.02 2.179,-1.922 3.871,-4.17 5.385,-6.491 -0.191,3.62 -0.403,7.237 -0.782,10.842 -0.326,3.101 -0.914,6.178 -1.473,9.258 -2.083,2.365 -3.966,4.86 -5.423,7.56 -0.002,0.004 -0.004,0.007 -0.006,0.011 -0.324,0.642 -0.673,1.288 -0.988,1.96 -1.3054,2.786 -2.3341,5.742 -2.4752,8.814 -7e-4,0.014 -7e-4,0.028 0,0.042 0.0383,0.729 -0.0143,1.409 0.3272,2.222 0.1454,0.346 0.3729,0.695 0.7497,0.948 0.3769,0.254 0.9537,0.368 1.4963,0.192 0.344,-0.112 0.518,-0.281 0.619,-0.339 0.039,-0.022 0.074,-0.048 0.106,-0.077 0.153,-0.145 0.349,-0.303 0.54,-0.512 1.53,-1.673 2.318,-3.768 3.091,-5.629 0.003,-0.008 0.006,-0.016 0.008,-0.024 0.185,-0.527 0.383,-1.06 0.563,-1.607 1.045,-3.185 1.748,-6.431 2.424,-9.659 v -0.004 c 0.224,-1.107 0.328,-2.231 0.531,-3.341 0.528,-0.588 0.989,-1.219 1.553,-1.78 0.559,-0.556 1.162,-1.094 1.76,-1.656 l 0.005,-0.003 c 0.002,-0.002 0.003,-0.004 0.006,-0.006 0.155,-0.138 0.337,-0.253 0.495,-0.389 -0.033,0.089 -0.072,0.185 -0.106,0.272 -0.004,0.011 -0.008,0.022 -0.011,0.033 -0.524,1.762 -1.048,3.834 -0.113,5.75 0.171,0.352 0.398,0.622 0.553,0.861 0.024,0.037 0.053,0.071 0.086,0.101 0.212,0.189 0.439,0.469 0.809,0.715 1.656,1.099 3.799,0.973 5.552,0.597 0.584,-0.126 1.11,-0.307 1.612,-0.446 0.014,-0.004 0.027,-0.008 0.04,-0.013 2.985,-1.051 5.6,-2.714 7.883,-4.623 0.468,-0.391 0.894,-0.797 1.323,-1.179 0.004,-0.004 0.008,-0.007 0.012,-0.011 1.546,-1.464 2.85,-3.1 3.902,-4.859 0.568,-0.95 0.73,-1.318 1.202,-2.27 10e-4,-0.003 0.002,-0.005 0.003,-0.008 0.335,-0.703 0.492,-1.447 0.756,-2.168 -0.013,1.127 -0.029,2.254 -0.082,3.384 v 0.004 0.001 c -0.102,1.733 -0.084,3.469 0.062,5.201 0.001,0.005 0.001,0.011 0.002,0.016 0.153,1.248 0.373,2.56 1.047,3.777 0.117,0.212 0.245,0.387 0.345,0.543 0.01,0.014 0.02,0.028 0.031,0.042 0.509,0.632 1.265,1.228 2.319,1.292 0.695,0.042 1.043,-0.098 1.598,-0.245 0.025,-0.007 0.049,-0.015 0.073,-0.025 1.672,-0.677 2.902,-1.861 3.861,-3.119 0.249,-0.325 0.459,-0.651 0.671,-0.953 0.003,-0.005 0.006,-0.01 0.009,-0.014 1.549,-2.383 2.31,-5.01 3.133,-7.532 l 0.001,-0.005 c 0.653,-1.929 1.242,-3.857 2.062,-5.692 0.561,-1.257 0.669,-1.379 1.351,-2.593 0.998,-1.615 2.239,-3.102 3.812,-4.29 1.008,-0.761 1.284,-0.856 2.422,-1.477 1.493,-0.693 3.094,-1.148 4.738,-1.075 0.966,0.043 1.059,0.131 1.991,0.394 0.328,0.152 0.636,0.273 0.867,0.409 1.142,0.667 1.934,1.713 2.52,2.838 -1.066,1.789 -2.109,3.593 -3.222,5.357 -0.002,0.003 -0.004,0.006 -0.006,0.009 -0.988,1.644 -2.023,3.298 -2.856,5.053 -0.429,0.905 -0.863,1.926 -1.081,2.939 -0.094,0.437 -0.099,0.845 -0.141,1.206 -0.005,0.035 -0.005,0.07 0,0.104 0.042,0.317 0.05,0.593 0.116,0.901 0.065,0.308 0.206,0.639 0.477,0.975 0.614,0.762 1.681,0.945 2.591,0.765 0.364,-0.072 0.637,-0.196 0.857,-0.266 0.036,-0.011 0.07,-0.025 0.103,-0.042 0.245,-0.132 0.549,-0.263 0.858,-0.463 2.088,-1.351 3.219,-3.418 4.095,-5.35 0.006,-0.013 0.012,-0.025 0.016,-0.038 0.466,-1.334 0.663,-1.732 0.908,-3.16 0.375,-2.185 0.27,-4.412 -0.357,-6.559 -0.002,-0.01 -0.005,-0.019 -0.008,-0.028 -0.159,-0.436 -0.299,-0.91 -0.508,-1.391 0.907,-1.528 1.845,-3.047 2.751,-4.572 l 0.002,-0.003 c 2.047,-3.399 4.199,-6.757 6.252,-10.172 v -0.001 c 0.069,-0.116 0.126,-0.24 0.195,-0.356 0.004,0.147 0.005,0.295 0.009,0.442 v 10e-4 c 0.103,3.802 0.027,7.612 -0.051,11.427 v 0.003 c -0.038,2.951 -0.107,5.905 -0.126,8.864 v 0.007 c 0.006,0.814 0.013,1.635 0.059,2.461 v 0.001 c 0.002,0.035 0.009,0.218 0.027,0.397 0.009,0.089 0.021,0.18 0.04,0.271 0.01,0.046 0.02,0.09 0.042,0.146 0.021,0.056 0.026,0.125 0.175,0.247 0.326,0.266 0.62,0.241 0.634,0.246 0.222,0.072 0.473,0.014 0.625,-0.145 0.107,-0.113 0.29,-0.255 0.456,-0.486 0.183,-0.252 0.294,-0.5 0.403,-0.707 0.402,-0.762 0.647,-1.331 1.006,-2.103 0.719,-1.549 0.554,-1.189 1.319,-2.791 l 0.002,-0.004 c 0.985,-1.999 1.99,-3.983 3.146,-5.891 0.647,-1.069 0.84,-1.328 1.526,-2.344 0.888,-1.156 1.687,-2.445 2.962,-2.897 0.094,-0.033 0.27,-0.063 0.467,-0.106 0.195,0 0.365,-0.007 0.443,0.004 1.164,0.169 2.113,1.397 2.892,2.411 1.49,2.189 2.578,4.598 3.841,6.965 0.002,0.006 0.005,0.011 0.007,0.016 0.508,0.87 0.999,1.811 1.723,2.665 0.3,0.355 0.719,0.847 1.394,1.083 0.385,0.135 0.699,0.114 0.873,0.14 0.087,0.012 0.177,0.007 0.262,-0.016 0.227,-0.063 0.579,-0.096 0.966,-0.275 0.859,-0.396 1.549,-1.072 2.067,-1.627 1.31,-1.405 2.262,-2.978 3.223,-4.495 0.001,-0.002 0.003,-0.005 0.005,-0.007 1.997,-3.285 3.516,-6.731 5.35,-10.01 0.367,-0.657 0.77,-1.311 1.163,-1.978 l 0.005,-0.006 c 1.923,-2.76 0.839,-1.352 3.15,-4.065 0.133,-0.156 0.199,-0.371 0.16,-0.561 -0.04,-0.189 -0.164,-0.344 -0.322,-0.445 -0.158,-0.102 -0.362,-0.159 -0.583,-0.136 -0.22,0.023 -0.438,0.139 -0.571,0.296 -2.338,2.748 -1.306,1.404 -3.259,4.209 -0.007,0.01 -0.013,0.02 -0.02,0.03 -0.395,0.672 -0.812,1.346 -1.201,2.043 -1.857,3.319 -3.368,6.744 -5.317,9.952 -0.806,1.273 -1.188,1.943 -2.082,3.111 -0.706,0.921 -1.511,1.903 -2.492,2.417 -0.073,0.038 -0.251,0.088 -0.439,0.148 -0.108,-0.004 -0.259,-0.01 -0.25,-0.007 -0.186,-0.058 -0.515,-0.35 -0.746,-0.623 -0.615,-0.724 -1.072,-1.587 -1.58,-2.457 l -0.005,-0.008 c -0.001,-0.003 -0.003,-0.005 -0.004,-0.008 -1.255,-2.353 -2.362,-4.816 -3.935,-7.112 -0.004,-0.008 -0.009,-0.015 -0.014,-0.022 -0.883,-1.143 -2.024,-2.796 -4.093,-3.04 -0.353,-0.042 -0.632,0.001 -0.827,0.002 -0.05,0.001 -0.101,0.007 -0.15,0.02 -0.658,0.167 -0.938,0.2 -1.583,0.59 -1.336,0.81 -2.113,2.023 -2.875,3.052 -0.004,0.006 -0.008,0.012 -0.012,0.018 -0.696,1.032 -0.907,1.319 -1.572,2.416 -1.187,1.96 -2.209,3.98 -3.203,5.998 l -0.003,0.005 c -0.553,1.157 -1.084,2.315 -1.627,3.465 -0.002,-0.151 -0.009,-0.299 -0.01,-0.451 v -0.004 -0.002 c 0.019,-2.945 0.088,-5.894 0.126,-8.846 v -0.002 c 0.078,-3.82 0.154,-7.646 0.051,-11.478 -0.026,-1.103 -0.039,-2.197 -0.073,-3.298 0.793,-1.562 1.504,-3.16 1.969,-4.841 0.143,-0.516 0.236,-1.022 0.348,-1.506 0.002,-0.007 0.003,-0.014 0.005,-0.021 0.369,-2.046 0.349,-4.148 -0.156,-6.189 -0.069,-0.276 -0.156,-0.528 -0.227,-0.766 -0.003,-0.011 -0.007,-0.023 -0.011,-0.035 -0.056,-0.143 -0.214,-0.662 -0.49,-1.115 -0.138,-0.226 -0.303,-0.453 -0.584,-0.626 -0.282,-0.173 -0.752,-0.234 -1.118,-0.076 z m 0.556,2.062 c 0.017,0.046 0.049,0.121 0.063,0.156 0.073,0.247 0.152,0.474 0.205,0.686 0.462,1.855 0.484,3.778 0.147,5.662 v 0.003 c -0.112,0.49 -0.202,0.967 -0.327,1.418 -0.115,0.416 -0.325,0.809 -0.467,1.219 -0.028,-1.279 -0.092,-2.563 -0.085,-3.839 v -0.001 -0.005 c 0.031,-1.372 0.065,-2.725 0.231,-4.064 0.05,-0.408 0.141,-0.828 0.233,-1.235 z m -68.413,11.733 c 0.007,0.014 0.011,0.025 0.019,0.041 0.158,0.47 0.208,0.559 0.286,1.036 0.206,1.256 0.081,2.565 -0.112,3.875 -0.24,1.245 -0.281,1.594 -0.633,2.841 -0.391,1.384 -0.904,2.74 -1.476,4.078 0.085,-1.999 0.131,-4.005 0.305,-5.993 0,-0.002 0.002,-0.003 0.002,-0.005 0.237,-1.77 0.485,-3.824 1.271,-5.353 0.066,-0.128 0.173,-0.28 0.285,-0.457 0.015,-0.019 0.031,-0.038 0.053,-0.063 z m 21.973,20.107 c 0.299,0.008 0.779,0.008 1.17,0.079 0.201,0.037 0.365,0.096 0.437,0.14 0.072,0.043 0.056,0.025 0.058,0.062 -0.001,-0.017 -0.016,0.064 -0.025,0.105 -0.056,0.101 -0.105,0.196 -0.128,0.225 -0.646,0.833 -2.14,1.466 -3.346,2.079 -3.494,1.548 -7.091,2.965 -10.568,4.629 -0.002,0.002 -0.004,0.003 -0.006,0.004 -1.665,0.822 -2.521,1.219 -4.152,2.133 -0.305,0.171 -0.583,0.377 -0.884,0.553 0.348,-0.405 0.655,-0.833 1.021,-1.227 0.001,-0.002 0.003,-0.003 0.004,-0.005 0.414,-0.409 0.804,-0.818 1.21,-1.194 2.105,-1.955 4.54,-3.638 7.192,-5.005 0.52,-0.253 1.022,-0.509 1.525,-0.738 2.061,-0.938 4.229,-1.692 6.492,-1.84 z m 34.304,1.039 c 0.001,0.005 0.004,0.009 0.006,0.014 v 0.004 c 0.567,1.958 0.66,3.992 0.314,5.994 -0.23,1.33 -0.392,1.621 -0.845,2.911 -0.825,1.798 -1.836,3.601 -3.557,4.703 -0.167,0.107 -0.4,0.212 -0.651,0.342 -0.321,0.115 -0.675,0.202 -0.926,0.196 -0.255,-0.005 -0.374,-0.036 -0.523,-0.257 -0.256,-0.377 -0.202,-0.575 -0.26,-1.144 0.041,-0.355 0.057,-0.684 0.12,-0.964 0.195,-0.869 0.582,-1.792 0.986,-2.641 0.795,-1.67 1.801,-3.28 2.783,-4.915 l 0.006,-0.009 c 0.883,-1.399 1.699,-2.822 2.547,-4.234 z m -33.758,2.103 c -0.103,0.59 -0.138,1.163 -0.299,1.626 -0.004,0.012 -0.007,0.024 -0.01,0.036 -0.446,1.773 -1.015,3.515 -1.804,5.178 -0.469,0.946 -0.599,1.257 -1.143,2.167 -0.986,1.651 -2.205,3.182 -3.65,4.553 -0.433,0.387 -0.842,0.774 -1.265,1.128 -2.153,1.803 -4.593,3.352 -7.336,4.326 l -0.001,0.001 c -0.509,0.144 -0.98,0.303 -1.433,0.402 -1.43,0.313 -3.044,0.401 -4.15,-0.305 -0.149,-0.096 -0.325,-0.281 -0.55,-0.481 -0.166,-0.241 -0.33,-0.445 -0.415,-0.616 -0.727,-1.453 -0.315,-3.202 0.163,-4.84 0.163,-0.421 0.3,-0.83 0.467,-1.205 0.292,-0.655 0.722,-1.255 1.101,-1.876 1.316,-0.926 2.689,-1.791 4.116,-2.591 1.588,-0.89 2.404,-1.266 4.058,-2.083 l 0.006,-0.002 c 3.419,-1.636 6.994,-3.047 10.511,-4.604 0.009,-0.004 0.018,-0.008 0.027,-0.013 0.477,-0.24 1.049,-0.512 1.607,-0.801 z m -29.19,18.626 c -0.051,0.258 -0.072,0.52 -0.124,0.778 -0.673,3.21 -1.365,6.412 -2.387,9.526 -0.169,0.515 -0.364,1.032 -0.549,1.56 -0.757,1.819 -1.519,3.783 -2.835,5.215 -0.099,0.108 -0.2478,0.231 -0.4049,0.375 -0.0577,0.033 -0.1009,0.058 -0.1309,0.076 -0.0221,-0.021 0.004,-0.004 -0.0283,-0.056 -0.0637,-0.102 -0.1235,-0.241 -0.1294,-0.258 -0.2215,-0.639 -0.1728,-0.967 -0.2068,-1.74 0.1436,-2.842 1.1063,-5.627 2.3573,-8.294 0.296,-0.63 0.634,-1.258 0.96,-1.904 v -0.002 c 0.994,-1.839 2.177,-3.591 3.478,-5.276 z"
   id="path1783" /><g
   id="g1785"
   style="opacity:1"><path
     style="baseline-shift:baseline;clip-rule:nonzero;color:#000000;color-interpolation:sRGB;color-interpolation-filters:linearRGB;color-rendering:auto;direction:ltr;display:inline;dominant-baseline:auto;enable-background:accumulate;fill-opacity:1;fill-rule:nonzero;font-family:sans-serif;font-feature-settings:normal;font-size:medium;font-stretch:normal;font-style:normal;font-variant:normal;font-variant-alternates:normal;font-variant-caps:normal;font-variant-east-asian:normal;font-variant-ligatures:normal;font-variant-numeric:normal;font-variant-position:normal;font-variation-settings:normal;font-weight:normal;image-rendering:auto;inline-size:0;isolation:auto;letter-spacing:normal;line-height:normal;mix-blend-mode:normal;overflow:visible;paint-order:fill markers stroke;shape-margin:0;shape-padding:0;shape-rendering:auto;solid-color:#000000;solid-opacity:1;stop-color:#000000;stop-opacity:1;stroke:none;stroke-dasharray:none;stroke-dashoffset:0;stroke-linecap:round;stroke-linejoin:round;stroke-miterlimit:4;stroke-opacity:1;stroke-width:0.9549049177650569;text-align:start;text-anchor:start;text-decoration:none;text-decoration-color:#000000;text-decoration-line:none;text-decoration-style:solid;text-indent:0;text-orientation:mixed;text-rendering:auto;text-transform:none;vector-effect:none;visibility:visible;white-space:normal;word-spacing:normal;writing-mode:lr-tb"
     d="M 233.061 171.181 C 232.868 171.146 232.657 171.168 232.485 171.261 C 232.329 171.346 232.173 171.431 232.017 171.516 C 228.498 173.354 224.761 174.917 221.097 176.62 C 210.83 181.232 200.557 185.843 190.411 190.655 L 190.41 190.657 C 184.934 193.28 182.609 194.374 177.131 197.083 C 168.332 201.434 159.647 205.937 150.941 210.402 C 141.938 214.973 132.932 219.534 123.77 223.863 C 121.583 224.875 121.419 224.959 119.373 225.878 C 118.565 226.241 117.665 226.63 116.841 227.014 L 116.841 227.012 C 116.301 227.264 116.237 227.303 115.804 227.529 C 115.799 227.532 115.794 227.534 115.789 227.537 C 115.619 227.633 115.48 227.797 115.443 227.975 C 115.406 228.153 115.462 228.325 115.568 228.456 C 115.707 228.628 115.964 228.686 116.225 228.679 C 116.354 228.705 116.489 228.686 116.603 228.627 C 117.027 228.406 117.049 228.389 117.567 228.148 C 118.366 227.776 119.257 227.391 120.069 227.027 C 122.123 226.104 122.294 226.016 124.488 225.001 L 124.491 224.999 C 133.678 220.66 142.701 216.09 151.711 211.516 L 151.713 211.515 C 160.421 207.049 169.1 202.548 177.885 198.203 C 183.352 195.5 185.671 194.41 191.142 191.788 L 191.145 191.787 C 201.274 186.983 211.537 182.376 221.801 177.765 L 221.808 177.762 C 225.459 176.066 229.224 174.49 232.809 172.617 L 232.816 172.614 C 232.975 172.527 233.134 172.441 233.292 172.355 C 233.464 172.262 233.607 172.099 233.648 171.922 C 233.688 171.745 233.636 171.572 233.533 171.439 C 233.43 171.307 233.255 171.216 233.062 171.181 Z"
     id="path1789" /></g><path
   style="color:#000000;font-style:normal;font-variant:normal;font-weight:normal;font-stretch:normal;font-size:medium;line-height:normal;font-family:sans-serif;font-variant-ligatures:normal;font-variant-position:normal;font-variant-caps:normal;font-variant-numeric:normal;font-variant-alternates:normal;font-variant-east-asian:normal;font-feature-settings:normal;font-variation-settings:normal;text-indent:0;text-align:start;text-decoration:none;text-decoration-line:none;text-decoration-style:solid;text-decoration-color:#000000;letter-spacing:normal;word-spacing:normal;text-transform:none;writing-mode:lr-tb;direction:ltr;text-orientation:mixed;dominant-baseline:auto;baseline-shift:baseline;text-anchor:start;white-space:normal;shape-padding:0;shape-margin:0;inline-size:0;clip-rule:nonzero;display:inline;overflow:visible;visibility:visible;isolation:auto;mix-blend-mode:normal;color-interpolation:sRGB;color-interpolation-filters:linearRGB;solid-color:#000000;solid-opacity:1;vector-effect:none;fill:#000000;fill-opacity:1;fill-rule:nonzero;stroke:none;stroke-width:0.184441;stroke-linecap:butt;stroke-linejoin:miter;stroke-miterlimit:4;stroke-dasharray:none;stroke-dashoffset:0;stroke-opacity:1;color-rendering:auto;image-rendering:auto;shape-rendering:auto;text-rendering:auto;enable-background:accumulate;stop-color:#000000"
   d="m 222.306,185.508 c 0.113,0.512 -0.273,1.007 -0.863,1.105 -0.59,0.099 -1.16,-0.237 -1.273,-0.75 -0.113,-0.512 0.273,-1.007 0.863,-1.105 0.59,-0.098 1.16,0.237 1.273,0.75 z"
   id="path1775" /><path
   style="color:#000000;font-style:normal;font-variant:normal;font-weight:normal;font-stretch:normal;font-size:medium;line-height:normal;font-family:sans-serif;font-variant-ligatures:normal;font-variant-position:normal;font-variant-caps:normal;font-variant-numeric:normal;font-variant-alternates:normal;font-variant-east-asian:normal;font-feature-settings:normal;font-variation-settings:normal;text-indent:0;text-align:start;text-decoration:none;text-decoration-line:none;text-decoration-style:solid;text-decoration-color:#000000;letter-spacing:normal;word-spacing:normal;text-transform:none;writing-mode:lr-tb;direction:ltr;text-orientation:mixed;dominant-baseline:auto;baseline-shift:baseline;text-anchor:start;white-space:normal;shape-padding:0;shape-margin:0;inline-size:0;clip-rule:nonzero;display:inline;overflow:visible;visibility:visible;isolation:auto;mix-blend-mode:normal;color-interpolation:sRGB;color-interpolation-filters:linearRGB;solid-color:#000000;solid-opacity:1;vector-effect:none;fill:#000000;fill-opacity:1;fill-rule:nonzero;stroke:none;stroke-width:0.184441;stroke-linecap:butt;stroke-linejoin:miter;stroke-miterlimit:4;stroke-dasharray:none;stroke-dashoffset:0;stroke-opacity:1;color-rendering:auto;image-rendering:auto;shape-rendering:auto;text-rendering:auto;enable-background:accumulate;stop-color:#000000"
   d="m 221.014,184.672 c -0.643,0.107 -1.066,0.65 -0.943,1.208 0.123,0.559 0.747,0.927 1.391,0.82 0.643,-0.107 1.067,-0.649 0.943,-1.208 -0.123,-0.559 -0.747,-0.927 -1.391,-0.82 z m 0.038,0.172 c 0.537,-0.09 1.052,0.215 1.155,0.681 0.103,0.466 -0.247,0.913 -0.783,1.002 -0.537,0.09 -1.052,-0.214 -1.154,-0.68 -0.103,-0.466 0.246,-0.914 0.782,-1.003 z"
   id="path1777" /></svg>
