<?xml version="1.0" encoding="UTF-8" standalone="no"?>
<svg
   xmlns:dc="http://purl.org/dc/elements/1.1/"
   xmlns:cc="http://creativecommons.org/ns#"
   xmlns:rdf="http://www.w3.org/1999/02/22-rdf-syntax-ns#"
   xmlns:svg="http://www.w3.org/2000/svg"
   xmlns="http://www.w3.org/2000/svg"
   xmlns:sodipodi="http://sodipodi.sourceforge.net/DTD/sodipodi-0.dtd"
   xmlns:inkscape="http://www.inkscape.org/namespaces/inkscape"
   height="270.93332mm"
   width="338.66666mm"
   inkscape:version="1.0.1 (3bc2e813f5, 2020-09-07)"
   sodipodi:docname="cat.svg"
   id="svg74"
   xml:space="preserve"
   viewBox="0 0 338.66666 270.93332"
   y="0px"
   x="0px"
   version="1.1"
   class="kitten"><metadata
   id="metadata80"><rdf:RDF><cc:Work
       rdf:about=""><dc:format>image/svg+xml</dc:format><dc:type
         rdf:resource="http://purl.org/dc/dcmitype/StillImage" /><dc:title /></cc:Work></rdf:RDF></metadata><defs
   id="defs78"><rect
   x="21.436945"
   y="172.2161"
   width="302.60599"
   height="81.494541"
   id="rect1131" />
                
            
                    
                    
                
                
            
                
            
                
            
                
            
                
            
                
                
            
                
                
            </defs><sodipodi:namedview
   pagecolor="#ffffff"
   bordercolor="#666666"
   borderopacity="1"
   objecttolerance="10"
   gridtolerance="10"
   guidetolerance="10"
   inkscape:pageopacity="0"
   inkscape:pageshadow="2"
   inkscape:window-width="1832"
   inkscape:window-height="1009"
   id="namedview76"
   showgrid="false"
   inkscape:zoom="0.64379276"
   inkscape:cx="585.5648"
   inkscape:cy="498.0642"
   inkscape:window-x="88"
   inkscape:window-y="34"
   inkscape:window-maximized="1"
   inkscape:current-layer="svg74"
   inkscape:document-rotation="0"
   units="mm" />
            <style
   type="text/css"
   id="style2">
                .st0{fill:#2EC7FF;}
                .st1{fill:#5CD3FF;}
                .st2{fill:#2EB5FF;}
                .st3{fill:#299ACC;}
                .st4{fill:#196FA3;}
                .st5{fill:#ffcccb;}
                .st6{fill:#FFFFFF;}
                .st7{fill:#FFFFFF;}
                .st8{fill:#46D3F9;}
                .st9{fill:#2EB5FF;}
                .st10{fill:#6BCEF9;}
                .st11{stroke:#000000;stroke-miterlimit:10;}
            </style>
            <g
   id="Head">
                <path
   id="polygon4"
   style="fill:#2ec7ff;stroke:#2ec7ff;stroke-width:0.132292;stroke-miterlimit:4;stroke-dasharray:none;stroke-opacity:1"
   d="M 187.524,56.9984 H 140.099 L 114.047,74.032 v 21.7935 l 36.988,24.3735 z" /><path
   id="path465"
   style="fill:#2ec7ff;stroke:#2ec7ff;stroke-width:0.132292;stroke-miterlimit:4;stroke-dasharray:none;stroke-opacity:1"
   d="m 187.524,56.9984 -36.489,63.2006 6.349,4.183 h 25.299 L 220.259,95.8255 V 74.032 L 191.702,56.9984 Z" />
            </g>
            <path
   id="polygon7"
   style="fill:#5cd3ff;stroke-width:0.99999938599"
   d="M 193.352 146.004 L 145.331 143.302 L 142.306 147.934 L 169.21 173.084 L 194.359 147.934 L 193.352 146.004 Z" /><path
   id="path1111"
   style="fill:#5cd3ff;stroke-width:0.99999938599"
   d="M 193.323 145.95 L 145.364 143.251 L 145.331 143.302 L 193.352 146.004 L 193.323 145.95 Z" /><path
   id="path1109"
   style="fill:#5cd3ff;stroke-width:0.99999938599"
   d="M 157.26 125.037 L 145.364 143.251 L 193.323 145.95 L 182.41 125.037 L 157.26 125.037 Z" />
            <path
   id="polygon12"
   style="fill:#2eb5ff;stroke-width:0.99999938599"
   d="M 188.672 219.036 L 155.731 238.055 L 162.145 257.147 L 174.669 257.147 L 188.672 219.036 Z" /><path
   id="path1212"
   style="fill:#2eb5ff;stroke-width:0.99999938599"
   d="M 188.7 218.96 L 155.714 238.005 L 155.731 238.055 L 188.672 219.036 L 188.7 218.96 Z" /><path
   id="path1210"
   style="fill:#2eb5ff;stroke-width:0.99999938599"
   d="M 199.509 189.547 L 144.396 204.314 L 155.714 238.005 L 188.7 218.96 L 199.509 189.547 Z" /><path
   id="path1208"
   style="fill:#2eb5ff;stroke-width:0.99999938599"
   d="M 199.531 189.486 L 144.379 204.264 L 144.396 204.314 L 199.509 189.547 L 199.531 189.486 Z" /><path
   id="path1206"
   style="fill:#2eb5ff;stroke-width:0.99999938599"
   d="M 142.104 147.428 L 130.081 161.706 L 144.379 204.264 L 199.531 189.486 L 209.739 161.706 L 194.459 147.428 L 169.158 172.979 L 142.104 147.428 Z" />
            <path
   id="polygon15"
   style="fill:#299acc;stroke-width:0.99999938599"
   d="M 155.867 238.73 L 129.716 245.737 L 136.468 257.271 L 162.019 257.021 L 155.867 238.73 Z" /><path
   id="path1292"
   style="fill:#299acc;stroke-width:0.99999938599"
   d="M 152.073 227.448 C 150.72 227.086 136.842 223.367 132.164 222.114 L 124.444 236.73 L 129.716 245.737 L 155.867 238.73 L 152.073 227.448 Z" /><path
   id="path1290"
   style="fill:#299acc;stroke-width:0.99999938599"
   d="M 143.231 201.16 L 132.164 222.114 C 136.842 223.367 150.72 227.086 152.073 227.448 L 143.231 201.16 Z" />
            <path
   id="polygon18"
   style="fill:#299acc;stroke-width:0.99999938599"
   d="M 177.694 248.882 L 174.669 257.147 L 199.218 257.147 L 205.164 248.882 L 177.694 248.882 Z" /><path
   id="path1369"
   style="fill:#299acc;stroke-width:0.99999938599"
   d="M 201.59 213.115 L 195.21 201.035 L 184.55 230.155 L 201.59 213.115 Z" /><path
   id="path1367"
   style="fill:#299acc;stroke-width:0.99999938599"
   d="M 201.59 213.115 L 184.55 230.155 L 177.694 248.882 L 205.164 248.882 L 213.996 236.606 L 201.59 213.115 Z" />
            <g
   id="g23">
                    <path
   id="polygon21"
   style="fill:#5cd3ff"
   d="m 201.898,213.434 22.845,-10.019 -18.06,19.063 z"
   class="st1" />
                    <!-- <path d="M870.4,759.4l-70,73.8l-18.5-35L870.4,759.4 M874.5,756.5l-94,41.2l19.6,37.2L874.5,756.5L874.5,756.5z"/> -->
                </g>
            <g
   id="Nose">
                <path
   id="polygon26"
   style="fill:#196fa3"
   d="m 160.891,95.8254 h 14.78 l -7.265,5.7616 z"
   class="st4" />
            </g>
            <g
   id="InsideMouth">
                <path
   id="polygon29"
   style="fill:#ffcccb"
   d="m 154.754,91.4416 13.527,10.0204 13.528,-10.0204 16.582,21.0424 -15.831,12.024 h -25.3 l -22.546,-14.855 z"
   class="st5" />
            </g>
            <g
   id="EyeWhiteRight">
                <g
   id="g34">
                    <path
   id="polygon32"
   style="fill:#ffffff"
   d="m 185.566,95.8254 -3.608,-4.4088 3.307,-8.1162 h 12.099 l 4.309,5.3858 -6.639,7.1392 z"
   class="st6" />
                    <!-- <path d="M762.9,279l16.8,21l-26.1,28h-37.3l-14.1-17.2l13-31.8H762.9 M763.3,278h-48.8L701,311l14.7,18H754l27-29L763.3,278
                        L763.3,278z"/> -->
                </g>
            </g>
            <g
   id="EyeWhiteLeft">
                <path
   id="polygon37"
   style="fill:#ffffff"
   d="M 154.63,91.3164 150.546,83.05 h -13.727 l -3.357,5.5109 6.964,7.2645 9.569,0.1253 z"
   class="st7" />
            </g>
            <g
   id="MouthDownOpen">
                <path
   id="Toungue"
   style="fill:#196fa3"
   d="m 173.041,117.117 c 0,0.765 -0.502,1.497 -1.394,2.038 -0.892,0.54 -2.103,0.844 -3.366,0.844 -1.262,0 -2.473,-0.304 -3.365,-0.844 -0.893,-0.541 -1.394,-1.273 -1.394,-2.038 0,-0.763 0.501,-1.496 1.394,-2.036 0.892,-0.541 2.103,-0.844 3.365,-0.844 1.263,0 2.474,0.303 3.366,0.844 0.892,0.54 1.394,1.273 1.394,2.036 z"
   class="st4" />
                <path
   id="Jaw"
   style="fill:#46d3f9"
   d="m 157.26,124.508 -22.546,-14.931 8.768,-8.366 14.779,15.456 h 20.29 l 12.275,-14.178 7.515,9.869 -15.781,12.15 z"
   class="st8" />
                <g
   id="TeethLeft">
                    <path
   id="polygon42"
   style="fill:#ffffff"
   d="m 157.109,111.607 1.152,4.133 1.303,-4.008 z"
   class="st6" />
                </g>
                <g
   id="TeethRight">
                    <path
   id="polygon45"
   style="fill:#ffffff"
   d="m 177.149,111.356 1.152,4.133 1.303,-4.007 z"
   class="st6" />
                </g>
            </g>
            <g
   id="MouthDownCLosed">
                <path
   id="JawClosed"
   style="fill:#46d3f9"
   d="m 143.482,101.211 14.779,11.147 10.02,-5.586 10.02,5.586 12.525,-9.869 7.515,9.869 -15.781,12.15 h -25.551 l -22.295,-14.931 z"
   class="st8" />
            </g>
            <g
   id="MouthUp">
                <path
   id="polygon51"
   style="fill:#2eb5ff;stroke-width:0.999999"
   d="m 168.275,101.206 -13.771,-10.0148 -11.022,10.0198 14.779,11.273 10.014,-5.758 z" /><path
   id="path985"
   style="fill:#2eb5ff;stroke-width:0.999999"
   d="m 168.275,101.206 v 5.52 l 0.006,-0.004 10.02,5.762 12.55,-9.82 -9.042,-11.4728 -13.528,10.0198 z" />
            </g>
            <path
   id="RightEarOuter"
   style="fill:#6bcef9"
   d="M 191.703,57.2486 220.26,13.6618 v 60.6207 z"
   class="st10" /><path
   id="RightEarInner"
   style="fill:#196fa3"
   d="m 196.913,60.3548 17.084,-29.659 V 70.5 Z"
   class="st4" />
            <path
   id="LeftEarOuter"
   style="fill:#6bcef9"
   d="M 114.048,13.6618 V 74.032 L 139.85,56.9981 Z"
   class="st10" />
            <path
   id="ShadowPath"
   style="fill:#196fa3;stroke-width:0.99999938599"
   d="M 169.181 127.638 L 180.931 127.638 L 183.812 126.888 L 182.635 124.657 L 172.223 124.595 L 169.181 127.638 Z" /><path
   id="path1123"
   style="fill:#196fa3;stroke-width:0.99999938599"
   d="M 172.149 124.595 L 157.41 124.508 L 155.756 126.787 L 158.136 127.638 L 169.106 127.638 L 172.149 124.595 Z" /><path
   id="path1121"
   style="fill:#196fa3;stroke-width:0.99999938599"
   d="M 172.149 124.595 L 169.106 127.638 L 169.181 127.638 L 172.223 124.595 L 172.149 124.595 Z" />
            <g
   id="MedEyes">
                <path
   id="MedEyeRight"
   class="st11"
   d="m 190.952,83.05 c 0,0 -6.764,6.0119 0,12.7754 0,0 6.763,-6.012 0,-12.7754 z" />
                <path
   id="MedEyeLeft"
   class="st11"
   d="m 145.611,83.05 c 0,0 -6.763,6.0119 0,12.7754 0,0 6.763,-6.012 0,-12.7754 z" />
            </g>
            <g
   id="BigEyes">
                <!-- <circle id="BigEyeRight" class="st11" cx="736.5" cy="303.5" r="25"/> -->
                <path
   id="BigEyeRight"
   class="st11"
   d="m 184.439,89.5629 c 0,2.2375 1.193,4.3049 3.131,5.4236 1.937,1.1184 4.324,1.1184 6.262,0 1.937,-1.1187 3.131,-3.1861 3.131,-5.4236 0,-2.2374 -1.194,-4.3048 -3.131,-5.4235 -1.938,-1.1185 -4.325,-1.1185 -6.262,0 -1.938,1.1187 -3.131,3.1861 -3.131,5.4235" />
                <!-- <circle id="BigEyeLeft" class="st11" cx="555" cy="303" r="25.5"/> -->
                <path
   id="BigEyeLeft"
   class="st11"
   d="m 138.973,89.4377 c 0,2.2374 1.193,4.3048 3.131,5.4235 1.938,1.1185 4.325,1.1185 6.263,0 1.937,-1.1187 3.131,-3.1861 3.131,-5.4235 0,-2.2374 -1.194,-4.3048 -3.131,-5.4235 -1.938,-1.1186 -4.325,-1.1186 -6.263,0 -1.938,1.1187 -3.131,3.1861 -3.131,5.4235" />
                <g
   id="Glare">
                    <path
   id="GlareRight"
   class="st6"
   d="m 192.329,86.1812 c 0,0.537 0.286,1.033 0.752,1.3016 0.465,0.2685 1.038,0.2685 1.503,0 0.464,-0.2686 0.751,-0.7646 0.751,-1.3016 0,-0.5371 -0.287,-1.0331 -0.751,-1.3016 -0.465,-0.2686 -1.038,-0.2686 -1.503,0 -0.466,0.2685 -0.752,0.7645 -0.752,1.3016" />
                    <path
   id="GlareLeft"
   class="st6"
   d="m 147.239,86.1812 c 0,0.537 0.287,1.033 0.752,1.3016 0.465,0.2685 1.038,0.2685 1.503,0 0.465,-0.2686 0.752,-0.7646 0.752,-1.3016 0,-0.5371 -0.287,-1.0331 -0.752,-1.3016 -0.465,-0.2686 -1.038,-0.2686 -1.503,0 -0.465,0.2685 -0.752,0.7645 -0.752,1.3016" />
                </g>
                <!-- <g id="GlareRight">
                    <circle class="st6" cx="749" cy="290" r="6"/>
                    
                    <path class="st6" d="M749,284.5c3,0,5.5,2.5,5.5,5.5s-2.5,5.5-5.5,5.5s-5.5-2.5-5.5-5.5S746,284.5,749,284.5 M749,283.5
                        c-3.6,0-6.5,2.9-6.5,6.5s2.9,6.5,6.5,6.5s6.5-2.9,6.5-6.5S752.6,283.5,749,283.5L749,283.5z"/>
                </g>
                <g id="GlareLeft">
                    <circle class="st6" cx="569" cy="290" r="6"/>
                    
                    <path d="M569,284.5c3,0,5.5,2.5,5.5,5.5s-2.5,5.5-5.5,5.5s-5.5-2.5-5.5-5.5S566,284.5,569,284.5 M569,283.5
                        c-3.6,0-6.5,2.9-6.5,6.5s2.9,6.5,6.5,6.5s6.5-2.9,6.5-6.5S572.6,283.5,569,283.5L569,283.5z"/>
                </g> -->
            </g>

            <g
   id="SmallEye">
                <path
   id="SmallEyeRight"
   class="st11"
   d="m 190.851,83.1752 c 0,0 -3.607,4.3837 0,12.6502 0,0 2.906,-7.2645 0,-12.6502 z" />
                <path
   id="SmallEyeLeft"
   class="st11"
   d="m 145.762,83.1752 c 0,0 -3.607,4.3837 0,12.6502 0,0 2.906,-7.2645 0,-12.6502 z" />
            </g>
            <path
   id="RightEarInner-3"
   style="fill:#196fa3;stroke-width:1"
   d="m 136.04803,60.248844 -17.084,-29.659 v 39.8042 z"
   class="st4" /><text
   xml:space="preserve"
   id="text1129"
   style="font-style:normal;font-weight:normal;font-size:14.1111px;line-height:1.25;font-family:sans-serif;letter-spacing:0px;word-spacing:0px;white-space:pre;shape-inside:url(#rect1131);fill:#000000;fill-opacity:1;stroke:none;"
   transform="matrix(2.7731513,-0.50517871,0.46356977,2.5447413,-84.669568,-253.23554)"><tspan
     x="21.4375"
     y="184.79919"><tspan
       style="font-style:normal;font-variant:normal;font-weight:normal;font-stretch:normal;font-size:14.1111px;font-family:'Dancing Script';-inkscape-font-specification:'Dancing Script'">Yash Mahalwal</tspan></tspan></text><path
   style="fill:none;stroke:#000000;stroke-width:1.031875;stroke-linecap:round;stroke-linejoin:round;stroke-opacity:1;stroke-miterlimit:4;stroke-dasharray:none"
   d="M 38.834618,232.64208 317.99133,179.78474"
   id="path1135" /><path
   style="fill:none;stroke:#000000;stroke-width:1.03188;stroke-linecap:round;stroke-linejoin:round;stroke-miterlimit:4;stroke-dasharray:none;stroke-opacity:1"
   d="M 26.003858,174.6019 305.16057,121.74456"
   id="path1135-3" /></svg>
