<?xml version="1.0" encoding="UTF-8" standalone="no"?>
<svg
   xmlns:dc="http://purl.org/dc/elements/1.1/"
   xmlns:cc="http://creativecommons.org/ns#"
   xmlns:rdf="http://www.w3.org/1999/02/22-rdf-syntax-ns#"
   xmlns:svg="http://www.w3.org/2000/svg"
   xmlns="http://www.w3.org/2000/svg"
   xmlns:sodipodi="http://sodipodi.sourceforge.net/DTD/sodipodi-0.dtd"
   xmlns:inkscape="http://www.inkscape.org/namespaces/inkscape"
   width="1280"
   height="1024"
   viewBox="0 0 338.66668 270.93333"
   version="1.1"
   id="svg8"
   inkscape:version="1.0.1 (3bc2e813f5, 2020-09-07)"
   sodipodi:docname="loading-circle.svg">
  <style
     id="style2" />
  <defs
     id="defs2" />
  <sodipodi:namedview
     id="base"
     pagecolor="#ffffff"
     bordercolor="#666666"
     borderopacity="1.0"
     inkscape:pageopacity="0.0"
     inkscape:pageshadow="2"
     inkscape:zoom="0.81557583"
     inkscape:cx="312.54766"
     inkscape:cy="613.57258"
     inkscape:document-units="mm"
     inkscape:current-layer="layer1"
     inkscape:document-rotation="0"
     showgrid="false"
     inkscape:window-width="1832"
     inkscape:window-height="1009"
     inkscape:window-x="88"
     inkscape:window-y="34"
     inkscape:window-maximized="1"
     units="px" />
  <metadata
     id="metadata5">
    <rdf:RDF>
      <cc:Work
         rdf:about="">
        <dc:format>image/svg+xml</dc:format>
        <dc:type
           rdf:resource="http://purl.org/dc/dcmitype/StillImage" />
        <dc:title />
      </cc:Work>
    </rdf:RDF>
  </metadata>
  <g
     inkscape:label="Layer 1"
     inkscape:groupmode="layer"
     id="layer1">
    <path
       id="path1157"
       style="fill:#3b3b3d;fill-opacity:1;stroke:#3b3b3d;stroke-width:3.402;stroke-linecap:square;stroke-linejoin:round;stroke-miterlimit:4;stroke-dasharray:none;stroke-opacity:1;paint-order:fill markers stroke"
       d="m 178.82939,92.430221 c -2.94333,-0.628325 -5.94368,-0.958075 -8.9533,-0.98435 v 43.109279 z" />
    <path
       id="path1155"
       style="fill:#3b3b3d;fill-opacity:1;stroke:#3b3b3d;stroke-width:3.402;stroke-linecap:square;stroke-linejoin:round;stroke-miterlimit:4;stroke-dasharray:none;stroke-opacity:1;paint-order:fill markers stroke"
       d="m 187.72696,95.329621 c -2.74965,-1.2268 -5.61602,-2.1732 -8.55535,-2.824725 l -8.9626,42.166974 z" />
    <path
       id="path1153"
       style="fill:#3b3b3d;fill-opacity:1;stroke:#3b3b3d;stroke-width:3.402;stroke-linecap:square;stroke-linejoin:round;stroke-miterlimit:4;stroke-dasharray:none;stroke-opacity:1;paint-order:fill markers stroke"
       d="m 195.82871,100.01597 c -2.4353,-1.771674 -5.0417,-3.293224 -7.78075,-4.541624 l -17.53785,39.388524 z" />
    <path
       id="path1151"
       style="fill:#3b3b3d;fill-opacity:1;stroke:#3b3b3d;stroke-width:3.402;stroke-linecap:square;stroke-linejoin:round;stroke-miterlimit:4;stroke-dasharray:none;stroke-opacity:1;paint-order:fill markers stroke"
       d="m 202.77646,106.2837 c -2.01215,-2.239 -4.2445,-4.2692 -6.66522,-6.06 l -25.34115,34.8806 z" />
    <path
       id="path1149"
       style="fill:#3b3b3d;fill-opacity:1;stroke:#3b3b3d;stroke-width:3.402;stroke-linecap:square;stroke-linejoin:round;stroke-miterlimit:4;stroke-dasharray:none;stroke-opacity:1;paint-order:fill markers stroke"
       d="m 208.27179,113.8599 c -1.5028,-2.6088 -3.2656,-5.05935 -5.26055,-7.31438 l -32.04485,28.8519 z" />
    <path
       id="path1147"
       style="fill:#3b3b3d;fill-opacity:1;stroke:#3b3b3d;stroke-width:3.402;stroke-linecap:square;stroke-linejoin:round;stroke-miterlimit:4;stroke-dasharray:none;stroke-opacity:1;paint-order:fill markers stroke"
       d="m 212.06934,122.41155 c -0.92718,-2.86425 -2.14215,-5.62755 -3.62375,-8.24803 l -37.33993,21.55755 z" />
    <path
       id="path1145"
       style="fill:#3b3b3d;fill-opacity:1;stroke:#3b3b3d;stroke-width:3.402;stroke-linecap:square;stroke-linejoin:round;stroke-miterlimit:4;stroke-dasharray:none;stroke-opacity:1;paint-order:fill markers stroke"
       d="m 214.00856,131.56672 c -0.31305,-2.9941 -0.92585,-5.94947 -1.8318,-8.82077 l -41.00342,13.32132 z" />
    <path
       id="path1143"
       style="fill:#3b3b3d;fill-opacity:1;stroke:#3b3b3d;stroke-width:3.402;stroke-linecap:square;stroke-linejoin:round;stroke-miterlimit:4;stroke-dasharray:none;stroke-opacity:1;paint-order:fill markers stroke"
       d="m 213.99926,140.92592 c 0.167,-1.56782 0.2507,-3.14227 0.2507,-4.71807 0,-1.43385 -0.069,-2.86635 -0.207,-4.29228 l -42.88032,4.50715 z" />
    <path
       id="path1141"
       style="fill:#3b3b3d;fill-opacity:1;stroke:#3b3b3d;stroke-width:3.402;stroke-linecap:square;stroke-linejoin:round;stroke-miterlimit:4;stroke-dasharray:none;stroke-opacity:1;paint-order:fill markers stroke"
       d="m 212.04679,150.07685 c 0.93247,-2.8624 1.57445,-5.81103 1.91532,-8.80208 l -42.879,-4.50715 z" />
    <path
       id="path1139"
       style="fill:#3b3b3d;fill-opacity:1;stroke:#3b3b3d;stroke-width:3.402;stroke-linecap:square;stroke-linejoin:round;stroke-miterlimit:4;stroke-dasharray:none;stroke-opacity:1;paint-order:fill markers stroke"
       d="m 208.23201,158.62162 c 1.50815,-2.60507 2.74968,-5.35607 3.70468,-8.21052 l -41.0008,-13.3225 z" />
    <path
       id="path1137"
       style="fill:#3b3b3d;fill-opacity:1;stroke:#3b3b3d;stroke-width:3.402;stroke-linecap:square;stroke-linejoin:round;stroke-miterlimit:4;stroke-dasharray:none;stroke-opacity:1;paint-order:fill markers stroke"
       d="m 202.72474,166.1888 c 2.01615,-2.235 3.80282,-4.66898 5.33087,-7.2621 l -37.33592,-21.55558 z" />
    <path
       id="path1135"
       style="fill:#3b3b3d;fill-opacity:1;stroke:#3b3b3d;stroke-width:3.402;stroke-linecap:square;stroke-linejoin:round;stroke-miterlimit:4;stroke-dasharray:none;stroke-opacity:1;paint-order:fill markers stroke"
       d="m 195.76506,172.44417 c 2.43795,-1.76677 4.69018,-3.7763 6.72358,-5.99537 l -32.03823,-28.84688 z" />
    <path
       id="path1133"
       style="fill:#3b3b3d;fill-opacity:1;stroke:#3b3b3d;stroke-width:3.402;stroke-linecap:square;stroke-linejoin:round;stroke-miterlimit:4;stroke-dasharray:none;stroke-opacity:1;paint-order:fill markers stroke"
       d="m 187.65799,177.11712 c 2.751,-1.22292 5.37197,-2.71915 7.8232,-4.46867 l -25.3438,-34.88073 z" />
    <path
       id="path1131"
       style="fill:#3b3b3d;fill-opacity:1;stroke:#3b3b3d;stroke-width:3.402;stroke-linecap:square;stroke-linejoin:round;stroke-miterlimit:4;stroke-dasharray:none;stroke-opacity:1;paint-order:fill markers stroke"
       d="m 178.75511,180.00077 c 2.94598,-0.62342 5.8203,-1.54262 8.5819,-2.74302 L 169.80049,137.8712 Z" />
    <path
       id="path1129"
       style="fill:#3b3b3d;fill-opacity:1;stroke:#3b3b3d;stroke-width:3.402;stroke-linecap:square;stroke-linejoin:round;stroke-miterlimit:4;stroke-dasharray:none;stroke-opacity:1;paint-order:fill markers stroke"
       d="m 169.44766,180.97037 c 0.0125,0 0.0252,0 0.0385,0 2.99768,0.001 5.98743,-0.29977 8.92543,-0.89797 l -8.9639,-42.1707 z" />
    <path
       id="path1127"
       style="fill:#3b3b3d;fill-opacity:1;stroke:#3b3b3d;stroke-width:3.402;stroke-linecap:square;stroke-linejoin:round;stroke-miterlimit:4;stroke-dasharray:none;stroke-opacity:1;paint-order:fill markers stroke"
       d="m 160.14286,179.98485 c 2.9433,0.62872 5.94365,0.95767 8.9533,0.9842 v -43.1058 z" />
    <path
       id="path1125"
       style="fill:#3b3b3d;fill-opacity:1;stroke:#3b3b3d;stroke-width:3.402;stroke-linecap:square;stroke-linejoin:round;stroke-miterlimit:4;stroke-dasharray:none;stroke-opacity:1;paint-order:fill markers stroke"
       d="m 151.24526,177.0853 c 2.74835,1.22695 5.61473,2.174 8.55405,2.82527 l 8.96258,-42.16937 z" />
    <path
       id="path1123"
       style="fill:#3b3b3d;fill-opacity:1;stroke:#3b3b3d;stroke-width:3.402;stroke-linecap:square;stroke-linejoin:round;stroke-miterlimit:4;stroke-dasharray:none;stroke-opacity:1;paint-order:fill markers stroke"
       d="m 143.14484,172.3991 c 2.434,1.77207 5.04037,3.29347 7.77942,4.54162 l 17.53523,-39.38257 z" />
    <path
       id="path1121"
       style="fill:#3b3b3d;fill-opacity:1;stroke:#3b3b3d;stroke-width:3.402;stroke-linecap:square;stroke-linejoin:round;stroke-miterlimit:4;stroke-dasharray:none;stroke-opacity:1;paint-order:fill markers stroke"
       d="m 136.19446,166.13177 c 2.01348,2.239 4.24585,4.26973 6.66655,6.0604 l 25.34113,-34.88072 z" />
    <path
       id="path1119"
       style="fill:#3b3b3d;fill-opacity:1;stroke:#3b3b3d;stroke-width:3.402;stroke-linecap:square;stroke-linejoin:round;stroke-miterlimit:4;stroke-dasharray:none;stroke-opacity:1;paint-order:fill markers stroke"
       d="m 130.70176,158.55795 c 1.50283,2.60772 3.26563,5.05892 5.26055,7.31385 l 32.04353,-28.85083 z" />
    <path
       id="path1117"
       style="fill:#3b3b3d;fill-opacity:1;stroke:#3b3b3d;stroke-width:3.402;stroke-linecap:square;stroke-linejoin:round;stroke-miterlimit:4;stroke-dasharray:none;stroke-opacity:1;paint-order:fill markers stroke"
       d="m 126.90159,150.00522 c 0.92847,2.86373 2.1435,5.62798 3.6251,8.24765 L 167.87321,136.692 Z" />
    <path
       id="path1115"
       style="fill:#3b3b3d;fill-opacity:1;stroke:#3b3b3d;stroke-width:3.402;stroke-linecap:square;stroke-linejoin:round;stroke-miterlimit:4;stroke-dasharray:none;stroke-opacity:1;paint-order:fill markers stroke"
       d="m 124.96369,140.85165 c 0.3117,2.9937 0.92582,5.94897 1.83177,8.82065 l 41.00348,-13.3225 z" />
    <path
       id="path1113"
       style="fill:#3b3b3d;fill-opacity:1;stroke:#3b3b3d;stroke-width:3.402;stroke-linecap:square;stroke-linejoin:round;stroke-miterlimit:4;stroke-dasharray:none;stroke-opacity:1;paint-order:fill markers stroke"
       d="m 124.97164,131.49247 c -0.16575,1.56648 -0.24925,3.1396 -0.24925,4.71538 0,1.43385 0.069,2.8664 0.207,4.29362 l 42.879,-4.50715 z" />
    <path
       id="path1111"
       style="fill:#3b3b3d;fill-opacity:1;stroke:#3b3b3d;stroke-width:3.402;stroke-linecap:square;stroke-linejoin:round;stroke-miterlimit:4;stroke-dasharray:none;stroke-opacity:1;paint-order:fill markers stroke"
       d="m 126.92414,122.33887 c -0.93248,2.86253 -1.57315,5.81183 -1.91403,8.8034 l 42.879,4.50585 z" />
    <path
       id="path1109"
       style="fill:#3b3b3d;fill-opacity:1;stroke:#3b3b3d;stroke-width:3.402;stroke-linecap:square;stroke-linejoin:round;stroke-miterlimit:4;stroke-dasharray:none;stroke-opacity:1;paint-order:fill markers stroke"
       d="m 130.73891,113.79345 c -1.50815,2.60587 -2.74832,5.35725 -3.70337,8.21222 l 41.01142,13.32675 z" />
    <path
       id="path1107"
       style="fill:#3b3b3d;fill-opacity:1;stroke:#3b3b3d;stroke-width:3.402;stroke-linecap:square;stroke-linejoin:round;stroke-miterlimit:4;stroke-dasharray:none;stroke-opacity:1;paint-order:fill markers stroke"
       d="m 136.24486,106.22825 c -2.01615,2.23527 -3.80152,4.66845 -5.32955,7.26225 l 37.33593,21.55675 z" />
    <path
       id="path1105"
       style="fill:#3b3b3d;fill-opacity:1;stroke:#3b3b3d;stroke-width:3.402;stroke-linecap:square;stroke-linejoin:round;stroke-miterlimit:4;stroke-dasharray:none;stroke-opacity:1;paint-order:fill markers stroke"
       d="m 143.20456,99.971421 c -2.43665,1.767829 -4.69022,3.776949 -6.72362,5.996979 l 32.03955,28.84805 z" />
    <path
       id="path1103"
       style="fill:#3b3b3d;fill-opacity:1;stroke:#3b3b3d;stroke-width:3.402;stroke-linecap:square;stroke-linejoin:round;stroke-miterlimit:4;stroke-dasharray:none;stroke-opacity:1;paint-order:fill markers stroke"
       d="m 151.31294,95.298846 c -2.75233,1.222425 -5.37333,2.71955 -7.82453,4.468425 l 25.34778,34.888699 z" />
    <path
       id="path1101"
       style="fill:#3b3b3d;fill-opacity:1;stroke:#3b3b3d;stroke-width:3.402;stroke-linecap:square;stroke-linejoin:round;stroke-miterlimit:4;stroke-dasharray:none;stroke-opacity:1;paint-order:fill markers stroke"
       d="m 160.21581,92.414421 c -2.94597,0.6237 -5.82165,1.543025 -8.5819,2.743825 l 17.5352,39.386304 z" />
    <path
       id="path1099"
       style="fill:#3b3b3d;fill-opacity:1;stroke:#3b3b3d;stroke-width:3.402;stroke-linecap:square;stroke-linejoin:round;stroke-miterlimit:4;stroke-dasharray:none;stroke-opacity:1;paint-order:fill markers stroke"
       d="m 169.52326,91.443896 c -0.0125,0 -0.0252,0 -0.037,0 -2.99902,0 -5.98877,0.30135 -8.92677,0.8993 l 8.9639,42.170824 z" />
  </g>
</svg>
