<?xml version="1.0" encoding="UTF-8" standalone="no"?>
<svg
   xmlns:dc="http://purl.org/dc/elements/1.1/"
   xmlns:cc="http://creativecommons.org/ns#"
   xmlns:rdf="http://www.w3.org/1999/02/22-rdf-syntax-ns#"
   xmlns:svg="http://www.w3.org/2000/svg"
   xmlns="http://www.w3.org/2000/svg"
   xmlns:sodipodi="http://sodipodi.sourceforge.net/DTD/sodipodi-0.dtd"
   xmlns:inkscape="http://www.inkscape.org/namespaces/inkscape"
   height="270.93332mm"
   width="338.66666mm"
   inkscape:version="1.0.1 (3bc2e813f5, 2020-09-07)"
   sodipodi:docname="name.svg"
   id="svg74"
   xml:space="preserve"
   viewBox="0 0 338.66666 270.93332"
   y="0px"
   x="0px"
   version="1.1"
   class="kitten"><metadata
   id="metadata80"><rdf:RDF><cc:Work
       rdf:about=""><dc:format>image/svg+xml</dc:format><dc:type
         rdf:resource="http://purl.org/dc/dcmitype/StillImage" /><dc:title /></cc:Work></rdf:RDF></metadata><defs
   id="defs78"><rect
   x="21.436945"
   y="172.2161"
   width="302.60599"
   height="81.494541"
   id="rect1131" />
                
            
                    
                    
                
                
            
                
            
                
            
                
            
                
            
                
                
            
                
                
            
        
        
        
      </defs><sodipodi:namedview
   pagecolor="#ffffff"
   bordercolor="#666666"
   borderopacity="1"
   objecttolerance="10"
   gridtolerance="10"
   guidetolerance="10"
   inkscape:pageopacity="0"
   inkscape:pageshadow="2"
   inkscape:window-width="1832"
   inkscape:window-height="1009"
   id="namedview76"
   showgrid="false"
   inkscape:zoom="1"
   inkscape:cx="380.65136"
   inkscape:cy="615.78032"
   inkscape:window-x="88"
   inkscape:window-y="34"
   inkscape:window-maximized="1"
   inkscape:current-layer="svg74"
   inkscape:document-rotation="0"
   units="mm" />
            <style
   type="text/css"
   id="style2">
.line { 
    stroke-dasharray:140;
  /*stroke-dashoffset:140;*/
    transition:stroke-dashofset 1.5s;
}
.st0 { fill:#2EC7FF; }
.st1 { fill:#5CD3FF; }
.st2 { fill:#2EB5FF; }
.st3 { fill:#299ACC; }
.st4 { fill:#196FA3; }
.st5 { fill:#ffcccb; }
.st6 { fill:#FFFFFF; }
.st7 { fill:#FFFFFF; }
.st8 { fill:#46D3F9; }
.st9 { fill:#2EB5FF; }
.st10 { fill:#6BCEF9; }
.st11 { stroke:#000000;stroke-miterlimit:10; }
</style>
<path
   d="m 178.55599,126.64433 c -0.385,0.166 -0.492,0.401 -0.533,0.438 -0.052,0.046 -0.093,0.1 -0.12,0.16 -0.074,0.164 -0.191,0.363 -0.275,0.618 -0.198,0.596 -0.309,1.379 -0.377,1.917 -0.177,1.413 -0.209,2.813 -0.241,4.206 0,0.002 0,0.005 0,0.007 -0.014,2.518 0.087,5.021 0.166,7.528 -0.502,0.969 -1.013,1.936 -1.579,2.885 -2.044,3.401 -4.197,6.761 -6.253,10.175 l -0.002,0.002 c -0.736,1.238 -1.492,2.462 -2.225,3.7 -0.657,-0.975 -1.448,-1.885 -2.566,-2.528 -0.393,-0.226 -0.782,-0.366 -1.105,-0.516 -0.031,-0.014 -0.063,-0.026 -0.097,-0.035 -1.014,-0.277 -1.337,-0.421 -2.485,-0.467 -2.011,-0.081 -3.904,0.471 -5.595,1.262 -0.012,0.005 -0.023,0.011 -0.034,0.017 -1.178,0.645 -1.571,0.808 -2.664,1.637 -1.747,1.323 -3.103,2.954 -4.177,4.696 -0.003,0.006 -0.006,0.011 -0.009,0.017 -0.693,1.236 -0.832,1.421 -1.413,2.722 -0.854,1.914 -1.455,3.88 -2.107,5.804 l -0.001,0.005 c -0.817,2.502 -1.552,5.012 -2.977,7.213 -0.214,0.308 -0.408,0.608 -0.614,0.879 -0.828,1.09 -1.843,2.057 -3.133,2.603 -0.203,0.061 -0.374,0.122 -0.492,0.144 -0.359,0.067 -0.592,0.03 -0.82,-0.07 -0.225,-0.099 -0.452,-0.288 -0.681,-0.559 -0.1,-0.153 -0.197,-0.289 -0.262,-0.404 -0.554,-0.991 -0.755,-2.139 -0.901,-3.308 -0.142,-1.671 -0.157,-3.349 -0.059,-5.025 v -0.005 c 0.071,-1.528 0.122,-3.061 0.111,-4.597 v -0.002 c -0.009,-1.009 -0.057,-2.005 -0.05,-2.988 v -0.003 c 0,-0.327 0.049,-0.739 -0.039,-1.182 v -0.001 c 0.011,0.057 0.009,0.017 -0.002,-0.079 -0.005,-0.049 -0.013,-0.12 -0.068,-0.218 -0.055,-0.099 -0.192,-0.224 -0.35,-0.274 -0.175,-0.056 -0.183,-0.012 -0.3,-0.007 0.46,-0.309 0.946,-0.597 1.281,-1.019 0.149,-0.188 0.222,-0.355 0.288,-0.462 0.025,-0.039 0.043,-0.082 0.054,-0.126 0.019,-0.078 0.109,-0.243 0.114,-0.509 0.012,-0.581 -0.376,-1.05 -0.827,-1.31 -0.451,-0.26 -0.963,-0.374 -1.414,-0.425 -0.389,-0.045 -0.735,-0.029 -1.028,-0.039 -0.02,-0.001 -0.04,0 -0.06,0.001 -2.591,0.15 -4.992,0.992 -7.204,1.996 -0.55,0.25 -1.072,0.519 -1.588,0.769 -0.004,0.002 -0.008,0.004 -0.012,0.007 -2.782,1.433 -5.339,3.197 -7.554,5.252 -0.449,0.416 -0.857,0.846 -1.269,1.252 -0.005,0.005 -0.01,0.01 -0.014,0.015 -1.291,1.386 -2.422,2.9 -3.417,4.487 -1.18,0.844 -2.328,1.722 -3.398,2.677 -0.003,0.003 -0.006,0.006 -0.009,0.009 -0.546,0.514 -1.116,1.03 -1.669,1.57 0.376,-2.281 0.848,-4.547 1.089,-6.846 0.451,-4.29 0.732,-8.587 0.931,-12.885 v -0.002 c 0.015,-0.338 0.039,-0.673 0.052,-1.011 0.115,-0.209 0.236,-0.422 0.352,-0.628 0.002,-0.004 0.004,-0.007 0.006,-0.011 1.212,-2.312 2.216,-4.714 2.917,-7.192 0.366,-1.297 0.418,-1.7 0.663,-2.968 10e-4,-0.006 0.002,-0.013 0.003,-0.019 0.205,-1.38 0.348,-2.816 0.115,-4.259 -0.091,-0.561 -0.175,-0.763 -0.337,-1.25 -0.004,-0.013 -0.009,-0.026 -0.014,-0.039 -0.095,-0.216 -0.224,-0.521 -0.49,-0.799 -0.266,-0.277 -0.8,-0.514 -1.337,-0.386 -0.619,0.148 -0.894,0.561 -1.105,0.777 -0.024,0.024 -0.045,0.05 -0.063,0.078 -0.112,0.177 -0.265,0.376 -0.397,0.626 -0.945,1.789 -1.183,4.006 -1.425,5.811 -10e-4,0.007 -10e-4,0.013 -10e-4,0.02 -0.292,3.3 -0.379,6.597 -0.509,9.886 -0.176,0.321 -0.351,0.648 -0.536,0.959 -1.681,2.83 -3.655,5.538 -6.2,7.792 -0.467003,0.371 -0.897003,0.747 -1.344003,1.066 -1.4479,1.034 -3.1794,1.946 -4.9685,2.026 -0.2545,0.011 -0.5792,-0.032 -0.9431,-0.059 -0.8121,-0.232 -0.9556,-0.193 -1.5797,-0.646 -1.0334,-0.749 -1.4605,-1.949 -1.7344,-3.192 -0.0493,-0.408 -0.1158,-0.793 -0.1369,-1.155 -0.1391,-2.388 0.4597,-4.802 0.894,-7.251 l 0.0015,-0.007 c 0.6146,-3.158 1.2858,-6.349 1.4578,-9.602 2e-4,-0.007 2e-4,-0.014 0,-0.022 0,-0.44 0.0221,-0.9 0,-1.38 -0.0657,-1.421 -0.3102,-2.971 -1.1707,-4.307 -0.1768,-0.275 -0.3781,-0.486 -0.5266,-0.675 -0.0193,-0.025 -0.0412,-0.048 -0.0654,-0.069 -0.4504,-0.393 -0.662,-0.637 -1.312,-0.927 -0.9799,-0.436 -2.0658,-0.443 -3.0524,-0.222 -0.0196,0.004 -0.039,0.009 -0.058,0.016 -0.1938,0.063 -0.4329,0.124 -0.6931,0.228 -1.296,0.52 -2.2491,1.423 -2.9974,2.368 -0.0056,0.007 -0.0111,0.014 -0.0163,0.021 -0.8344,1.181 -1.469,2.347 -1.8341,3.734 l -0.0015,0.004 c -0.2647,0.888 -0.5387,1.795 -0.7036,2.738 -0.0336,0.192 0.0238,0.409 0.1606,0.56 0.1369,0.152 0.3291,0.237 0.5236,0.263 0.1946,0.025 0.4066,-0.007 0.5891,-0.117 0.1825,-0.109 0.3115,-0.301 0.3451,-0.493 0.151,-0.861 0.4112,-1.723 0.6723,-2.6 0.0011,-0.004 0.0021,-0.009 0.003,-0.014 0.3139,-1.211 0.8703,-2.24 1.6318,-3.316 0.6355,-0.796 1.3935,-1.496 2.3413,-1.869 0.1298,-0.051 0.3073,-0.097 0.5043,-0.159 0.8419,-0.175 1.6591,-0.083 2.2863,0.382 0.1113,0.082 0.2431,0.217 0.4061,0.367 0.1528,0.195 0.2988,0.36 0.3882,0.502 0.6669,1.06 0.8864,2.385 0.9431,3.66 0.0181,0.408 -2e-4,0.836 -0.0015,1.282 -0.1699,3.144 -0.8253,6.272 -1.437,9.416 0,0.002 0,0.005 0,0.007 -0.4344,2.437 -1.0638,4.945 -0.9163,7.531 0.0258,0.452 0.1007,0.876 0.1473,1.278 0.0018,0.013 0.0043,0.026 0.0074,0.04 0.3033,1.416 0.8206,2.964 2.2506,4.028 0.8305,0.618 1.278,0.681 2.1971,0.961 0.0446,0.014 0.0911,0.023 0.1383,0.026 0.367,0.027 0.7998,0.106 1.3016,0.089 2.306,-0.075 4.3411,-1.17 5.9741,-2.332 0.526003,-0.374 0.986003,-0.776 1.447003,-1.139 0.008,-0.006 0.015,-0.013 0.022,-0.02 2.179,-1.922 3.871,-4.17 5.385,-6.491 -0.191,3.62 -0.403,7.237 -0.782,10.842 -0.326,3.101 -0.914,6.178 -1.473,9.258 -2.083,2.365 -3.966,4.86 -5.423003,7.56 -0.002,0.004 -0.004,0.007 -0.006,0.011 -0.324,0.642 -0.673,1.288 -0.988,1.96 -1.3054,2.786 -2.3341,5.742 -2.4752,8.814 -7e-4,0.014 -7e-4,0.028 0,0.042 0.0383,0.729 -0.0143,1.409 0.3272,2.222 0.1454,0.346 0.3729,0.695 0.7497,0.948 0.3769,0.254 0.9537,0.368 1.4963,0.192 0.344,-0.112 0.518,-0.281 0.619,-0.339 0.039,-0.022 0.074,-0.048 0.106,-0.077 0.153,-0.145 0.349,-0.303 0.54,-0.512 1.530003,-1.673 2.318003,-3.768 3.091003,-5.629 0.003,-0.008 0.006,-0.016 0.008,-0.024 0.185,-0.527 0.383,-1.06 0.563,-1.607 1.045,-3.185 1.748,-6.431 2.424,-9.659 v -0.004 c 0.224,-1.107 0.328,-2.231 0.531,-3.341 0.528,-0.588 0.989,-1.219 1.553,-1.78 0.559,-0.556 1.162,-1.094 1.76,-1.656 l 0.005,-0.003 c 0.002,-0.002 0.003,-0.004 0.006,-0.006 0.155,-0.138 0.337,-0.253 0.495,-0.389 -0.033,0.089 -0.072,0.185 -0.106,0.272 -0.004,0.011 -0.008,0.022 -0.011,0.033 -0.524,1.762 -1.048,3.834 -0.113,5.75 0.171,0.352 0.398,0.622 0.553,0.861 0.024,0.037 0.053,0.071 0.086,0.101 0.212,0.189 0.439,0.469 0.809,0.715 1.656,1.099 3.799,0.973 5.552,0.597 0.584,-0.126 1.11,-0.307 1.612,-0.446 0.014,-0.004 0.027,-0.008 0.04,-0.013 2.985,-1.051 5.6,-2.714 7.883,-4.623 0.468,-0.391 0.894,-0.797 1.323,-1.179 0.004,-0.004 0.008,-0.007 0.012,-0.011 1.546,-1.464 2.85,-3.1 3.902,-4.859 0.568,-0.95 0.73,-1.318 1.202,-2.27 0.001,-0.003 0.002,-0.005 0.003,-0.008 0.335,-0.703 0.492,-1.447 0.756,-2.168 -0.013,1.127 -0.029,2.254 -0.082,3.384 v 0.004 10e-4 c -0.102,1.733 -0.084,3.469 0.062,5.201 0.001,0.005 0.001,0.011 0.002,0.016 0.153,1.248 0.373,2.56 1.047,3.777 0.117,0.212 0.245,0.387 0.345,0.543 0.01,0.014 0.02,0.028 0.031,0.042 0.509,0.632 1.265,1.228 2.319,1.292 0.695,0.042 1.043,-0.098 1.598,-0.245 0.025,-0.007 0.049,-0.015 0.073,-0.025 1.672,-0.677 2.902,-1.861 3.861,-3.119 0.249,-0.325 0.459,-0.651 0.671,-0.953 0.003,-0.005 0.006,-0.01 0.009,-0.014 1.549,-2.383 2.31,-5.01 3.133,-7.532 l 0.001,-0.005 c 0.653,-1.929 1.242,-3.857 2.062,-5.692 0.561,-1.257 0.669,-1.379 1.351,-2.593 0.998,-1.615 2.239,-3.102 3.812,-4.29 1.008,-0.761 1.284,-0.856 2.422,-1.477 1.493,-0.693 3.094,-1.148 4.738,-1.075 0.966,0.043 1.059,0.131 1.991,0.394 0.328,0.152 0.636,0.273 0.867,0.409 1.142,0.667 1.934,1.713 2.52,2.838 -1.066,1.789 -2.109,3.593 -3.222,5.357 -0.002,0.003 -0.004,0.006 -0.006,0.009 -0.988,1.644 -2.023,3.298 -2.856,5.053 -0.429,0.905 -0.863,1.926 -1.081,2.939 -0.094,0.437 -0.099,0.845 -0.141,1.206 -0.005,0.035 -0.005,0.07 0,0.104 0.042,0.317 0.05,0.593 0.116,0.901 0.065,0.308 0.206,0.639 0.477,0.975 0.614,0.762 1.681,0.945 2.591,0.765 0.364,-0.072 0.637,-0.196 0.857,-0.266 0.036,-0.011 0.07,-0.025 0.103,-0.042 0.245,-0.132 0.549,-0.263 0.858,-0.463 2.088,-1.351 3.219,-3.418 4.095,-5.35 0.006,-0.013 0.012,-0.025 0.016,-0.038 0.466,-1.334 0.663,-1.732 0.908,-3.16 0.375,-2.185 0.27,-4.412 -0.357,-6.559 -0.002,-0.01 -0.005,-0.019 -0.008,-0.028 -0.159,-0.436 -0.299,-0.91 -0.508,-1.391 0.907,-1.528 1.845,-3.047 2.751,-4.572 l 0.002,-0.003 c 2.047,-3.399 4.199,-6.757 6.252,-10.172 v -0.001 c 0.069,-0.116 0.126,-0.24 0.195,-0.356 0.004,0.147 0.005,0.295 0.009,0.442 v 0.001 c 0.103,3.802 0.027,7.612 -0.051,11.427 v 0.003 c -0.038,2.951 -0.107,5.905 -0.126,8.864 v 0.007 c 0.006,0.814 0.013,1.635 0.059,2.461 v 0.001 c 0.002,0.035 0.009,0.218 0.027,0.397 0.009,0.089 0.021,0.18 0.04,0.271 0.01,0.046 0.02,0.09 0.042,0.146 0.021,0.056 0.026,0.125 0.175,0.247 0.326,0.266 0.62,0.241 0.634,0.246 0.222,0.072 0.473,0.014 0.625,-0.145 0.107,-0.113 0.29,-0.255 0.456,-0.486 0.183,-0.252 0.294,-0.5 0.403,-0.707 0.402,-0.762 0.647,-1.331 1.006,-2.103 0.719,-1.549 0.554,-1.189 1.319,-2.791 l 0.002,-0.004 c 0.985,-1.999 1.99,-3.983 3.146,-5.891 0.647,-1.069 0.84,-1.328 1.526,-2.344 0.888,-1.156 1.687,-2.445 2.962,-2.897 0.094,-0.033 0.27,-0.063 0.467,-0.106 0.195,0 0.365,-0.007 0.443,0.004 1.164,0.169 2.113,1.397 2.892,2.411 1.49,2.189 2.578,4.598 3.841,6.965 0.002,0.006 0.005,0.011 0.007,0.016 0.508,0.87 0.999,1.811 1.723,2.665 0.3,0.355 0.719,0.847 1.394,1.083 0.385,0.135 0.699,0.114 0.873,0.14 0.087,0.012 0.177,0.007 0.262,-0.016 0.227,-0.063 0.579,-0.096 0.966,-0.275 0.859,-0.396 1.549,-1.072 2.067,-1.627 1.31,-1.405 2.262,-2.978 3.223,-4.495 10e-4,-0.002 0.003,-0.005 0.005,-0.007 1.997,-3.285 3.516,-6.731 5.35,-10.01 0.367,-0.657 0.77,-1.311 1.163,-1.978 l 0.005,-0.006 c 1.923,-2.76 0.839,-1.352 3.15,-4.065 0.133,-0.156 0.199,-0.371 0.16,-0.561 -0.04,-0.189 -0.164,-0.344 -0.322,-0.445 -0.158,-0.102 -0.362,-0.159 -0.583,-0.136 -0.22,0.023 -0.438,0.139 -0.571,0.296 -2.338,2.748 -1.306,1.404 -3.259,4.209 -0.007,0.01 -0.013,0.02 -0.02,0.03 -0.395,0.672 -0.812,1.346 -1.201,2.043 -1.857,3.319 -3.368,6.744 -5.317,9.952 -0.806,1.273 -1.188,1.943 -2.082,3.111 -0.706,0.921 -1.511,1.903 -2.492,2.417 -0.073,0.038 -0.251,0.088 -0.439,0.148 -0.108,-0.004 -0.259,-0.01 -0.25,-0.007 -0.186,-0.058 -0.515,-0.35 -0.746,-0.623 -0.615,-0.724 -1.072,-1.587 -1.58,-2.457 l -0.005,-0.008 c -0.001,-0.003 -0.003,-0.005 -0.004,-0.008 -1.255,-2.353 -2.362,-4.816 -3.935,-7.112 -0.004,-0.008 -0.009,-0.015 -0.014,-0.022 -0.883,-1.143 -2.024,-2.796 -4.093,-3.04 -0.353,-0.042 -0.632,0.001 -0.827,0.002 -0.05,0.001 -0.101,0.007 -0.15,0.02 -0.658,0.167 -0.938,0.2 -1.583,0.59 -1.336,0.81 -2.113,2.023 -2.875,3.052 -0.004,0.006 -0.008,0.012 -0.012,0.018 -0.696,1.032 -0.907,1.319 -1.572,2.416 -1.187,1.96 -2.209,3.98 -3.203,5.998 l -0.003,0.005 c -0.553,1.157 -1.084,2.315 -1.627,3.465 -0.002,-0.151 -0.009,-0.299 -0.01,-0.451 v -0.004 -0.002 c 0.019,-2.945 0.088,-5.894 0.126,-8.846 v -0.002 c 0.078,-3.82 0.154,-7.646 0.051,-11.478 -0.026,-1.103 -0.039,-2.197 -0.073,-3.298 0.793,-1.562 1.504,-3.16 1.969,-4.841 0.143,-0.516 0.236,-1.022 0.348,-1.506 0.002,-0.007 0.003,-0.014 0.005,-0.021 0.369,-2.046 0.349,-4.148 -0.156,-6.189 -0.069,-0.276 -0.156,-0.528 -0.227,-0.766 -0.003,-0.011 -0.007,-0.023 -0.011,-0.035 -0.056,-0.143 -0.214,-0.662 -0.49,-1.115 -0.138,-0.226 -0.303,-0.453 -0.584,-0.626 -0.282,-0.173 -0.752,-0.234 -1.118,-0.076 z m 0.556,2.062 c 0.017,0.046 0.049,0.121 0.063,0.156 0.073,0.247 0.152,0.474 0.205,0.686 0.462,1.855 0.484,3.778 0.147,5.662 v 0.003 c -0.112,0.49 -0.202,0.967 -0.327,1.418 -0.115,0.416 -0.325,0.809 -0.467,1.219 -0.028,-1.279 -0.092,-2.563 -0.085,-3.839 v -10e-4 -0.005 c 0.031,-1.372 0.065,-2.725 0.231,-4.064 0.05,-0.408 0.141,-0.828 0.233,-1.235 z m -68.413,11.733 c 0.007,0.014 0.011,0.025 0.019,0.041 0.158,0.47 0.208,0.559 0.286,1.036 0.206,1.256 0.081,2.565 -0.112,3.875 -0.24,1.245 -0.281,1.594 -0.633,2.841 -0.391,1.384 -0.904,2.74 -1.476,4.078 0.085,-1.999 0.131,-4.005 0.305,-5.993 0,-0.002 0.002,-0.003 0.002,-0.005 0.237,-1.77 0.485,-3.824 1.271,-5.353 0.066,-0.128 0.173,-0.28 0.285,-0.457 0.015,-0.019 0.031,-0.038 0.053,-0.063 z m 21.973,20.107 c 0.299,0.008 0.779,0.008 1.17,0.079 0.201,0.037 0.365,0.096 0.437,0.14 0.072,0.043 0.056,0.025 0.058,0.062 -10e-4,-0.017 -0.016,0.064 -0.025,0.105 -0.056,0.101 -0.105,0.196 -0.128,0.225 -0.646,0.833 -2.14,1.466 -3.346,2.079 -3.494,1.548 -7.091,2.965 -10.568,4.629 -0.002,0.002 -0.004,0.003 -0.006,0.004 -1.665,0.822 -2.521,1.219 -4.152,2.133 -0.305,0.171 -0.583,0.377 -0.884,0.553 0.348,-0.405 0.655,-0.833 1.021,-1.227 10e-4,-0.002 0.003,-0.003 0.004,-0.005 0.414,-0.409 0.804,-0.818 1.21,-1.194 2.105,-1.955 4.54,-3.638 7.192,-5.005 0.52,-0.253 1.022,-0.509 1.525,-0.738 2.061,-0.938 4.229,-1.692 6.492,-1.84 z m 34.304,1.039 c 0.001,0.005 0.004,0.009 0.006,0.014 v 0.004 c 0.567,1.958 0.66,3.992 0.314,5.994 -0.23,1.33 -0.392,1.621 -0.845,2.911 -0.825,1.798 -1.836,3.601 -3.557,4.703 -0.167,0.107 -0.4,0.212 -0.651,0.342 -0.321,0.115 -0.675,0.202 -0.926,0.196 -0.255,-0.005 -0.374,-0.036 -0.523,-0.257 -0.256,-0.377 -0.202,-0.575 -0.26,-1.144 0.041,-0.355 0.057,-0.684 0.12,-0.964 0.195,-0.869 0.582,-1.792 0.986,-2.641 0.795,-1.67 1.801,-3.28 2.783,-4.915 l 0.006,-0.009 c 0.883,-1.399 1.699,-2.822 2.547,-4.234 z m -33.758,2.103 c -0.103,0.59 -0.138,1.163 -0.299,1.626 -0.004,0.012 -0.007,0.024 -0.01,0.036 -0.446,1.773 -1.015,3.515 -1.804,5.178 -0.469,0.946 -0.599,1.257 -1.143,2.167 -0.986,1.651 -2.205,3.182 -3.65,4.553 -0.433,0.387 -0.842,0.774 -1.265,1.128 -2.153,1.803 -4.593,3.352 -7.336,4.326 l -10e-4,0.001 c -0.509,0.144 -0.98,0.303 -1.433,0.402 -1.43,0.313 -3.044,0.401 -4.15,-0.305 -0.149,-0.096 -0.325,-0.281 -0.55,-0.481 -0.166,-0.241 -0.33,-0.445 -0.415,-0.616 -0.727,-1.453 -0.315,-3.202 0.163,-4.84 0.163,-0.421 0.3,-0.83 0.467,-1.205 0.292,-0.655 0.722,-1.255 1.101,-1.876 1.316,-0.926 2.689,-1.791 4.116,-2.591 1.588,-0.89 2.404,-1.266 4.058,-2.083 l 0.006,-0.002 c 3.419,-1.636 6.994,-3.047 10.511,-4.604 0.009,-0.004 0.018,-0.008 0.027,-0.013 0.477,-0.24 1.049,-0.512 1.607,-0.801 z m -29.19,18.626 c -0.051,0.258 -0.072,0.52 -0.124,0.778 -0.673,3.21 -1.365,6.412 -2.387,9.526 -0.169,0.515 -0.364,1.032 -0.549,1.56 -0.757,1.819 -1.519003,3.783 -2.835003,5.215 -0.099,0.108 -0.2478,0.231 -0.4049,0.375 -0.0577,0.033 -0.1009,0.058 -0.1309,0.076 -0.0221,-0.021 0.004,-0.004 -0.0283,-0.056 -0.0637,-0.102 -0.1235,-0.241 -0.1294,-0.258 -0.2215,-0.639 -0.1728,-0.967 -0.2068,-1.74 0.1436,-2.842 1.1063,-5.627 2.3573,-8.294 0.296,-0.63 0.634003,-1.258 0.960003,-1.904 v -0.002 c 0.994,-1.839 2.177,-3.591 3.478,-5.276 z"
   id="path1783" /><path
   d="m 216.04647,162.35271 c -0.193,-0.035 -0.404,-0.013 -0.576,0.08 -0.156,0.085 -0.312,0.17 -0.468,0.255 -3.519,1.838 -7.256,3.401 -10.92,5.104 -10.267,4.612 -20.54,9.223 -30.686,14.035 l -0.001,0.002 c -5.476,2.623 -7.801,3.717 -13.279,6.426 -8.799,4.351 -17.484,8.854 -26.19,13.319 -9.003,4.571 -18.009,9.132 -27.171,13.461 -2.187,1.012 -2.351,1.096 -4.397,2.015 -0.808,0.363 -1.708,0.752 -2.532001,1.136 v -0.002 c -0.54,0.252 -0.604,0.291 -1.037,0.517 -0.005,0.003 -0.01,0.005 -0.015,0.008 -0.17,0.096 -0.309,0.26 -0.346,0.438 -0.037,0.178 0.019,0.35 0.125,0.481 0.139,0.172 0.396,0.23 0.657,0.223 0.129,0.026 0.264,0.007 0.378,-0.052 0.424001,-0.221 0.446001,-0.238 0.964001,-0.479 0.799,-0.372 1.69,-0.757 2.502,-1.121 2.054,-0.923 2.225,-1.011 4.419,-2.026 l 0.003,-0.002 c 9.187,-4.339 18.21,-8.909 27.22,-13.483 l 0.002,-0.001 c 8.708,-4.466 17.387,-8.967 26.172,-13.312 5.467,-2.703 7.786,-3.793 13.257,-6.415 l 0.003,-0.001 c 10.129,-4.804 20.392,-9.411 30.656,-14.022 l 0.007,-0.003 c 3.651,-1.696 7.416,-3.272 11.001,-5.145 l 0.007,-0.003 c 0.159,-0.087 0.318,-0.173 0.476,-0.259 0.172,-0.093 0.315,-0.256 0.356,-0.433 0.04,-0.177 -0.012,-0.35 -0.115,-0.483 -0.103,-0.132 -0.278,-0.223 -0.471,-0.258 z"
   id="path1789" /><path
   d="m 220.21299,170.70433 c 0.113,0.512 -0.273,1.007 -0.863,1.105 -0.59,0.099 -1.16,-0.237 -1.273,-0.75 -0.113,-0.512 0.273,-1.007 0.863,-1.105 0.59,-0.098 1.16,0.237 1.273,0.75 z"
   id="path1775" />
      </svg>
